<?xml version="1.0" encoding="utf-8"?>
<!-- Generator: Adobe Illustrator 26.0.0, SVG Export Plug-In . SVG Version: 6.00 Build 0)  -->
<svg version="1.1" id="Calque_1" xmlns="http://www.w3.org/2000/svg" xmlns:xlink="http://www.w3.org/1999/xlink" x="0px" y="0px"
	 viewBox="0 0 141.73 141.73" style="enable-background:new 0 0 141.73 141.73;" xml:space="preserve">
<path d="M71.35,119.65c-0.25,0-0.51,0-0.76,0c-0.32-0.12-0.62-0.28-0.95-0.37c-10.91-3.05-21.82-6.1-32.74-9.13
	c-0.58-0.16-0.84-0.41-0.87-1.01c-0.08-1.36-0.22-2.72-0.34-4.07c-0.54-6.12-1.09-12.24-1.63-18.36
	c-0.54-6.06-1.07-12.12-1.61-18.18c-0.6-6.82-1.21-13.63-1.82-20.45c-0.55-6.15-1.1-12.31-1.64-18.46
	c-0.21-2.42-0.42-4.84-0.63-7.32c28.43,0,56.78,0,85.17,0c0.01,0.17,0.03,0.29,0.02,0.41c-0.39,4.45-0.79,8.9-1.19,13.35
	c-0.61,6.85-1.22,13.69-1.83,20.54c-0.53,6.03-1.06,12.05-1.6,18.08c-0.61,6.82-1.21,13.63-1.82,20.45
	c-0.42,4.67-0.84,9.34-1.23,14.01c-0.05,0.59-0.26,0.85-0.85,1.02c-8.88,2.45-17.74,4.93-26.61,7.42
	C76.06,118.23,73.71,118.95,71.35,119.65z M84.61,71.76c-0.52,4.75-1.04,9.43-1.53,14.13c-0.06,0.62-0.37,0.83-0.92,0.97
	c-3.52,0.93-7.03,1.89-10.55,2.82c-0.41,0.11-0.89,0.12-1.3,0.01c-3.52-0.92-7.03-1.9-10.55-2.81c-0.64-0.17-0.84-0.48-0.89-1.1
	c-0.19-2.4-0.46-4.8-0.62-7.2c-0.05-0.77-0.31-0.94-1.03-0.93c-2.25,0.04-4.5,0.01-6.75,0.01c-1.01,0-2.01,0-3.04,0
	c-0.02,0.26-0.05,0.42-0.04,0.57c0.48,5.36,0.98,10.73,1.44,16.1c0.05,0.58,0.36,0.7,0.83,0.82c6.9,1.9,13.79,3.82,20.69,5.71
	c0.37,0.1,0.82,0.11,1.19,0.01c6.9-1.89,13.79-3.81,20.69-5.68c0.64-0.17,0.86-0.44,0.91-1.08c0.22-2.81,0.49-5.62,0.74-8.43
	c0.61-6.75,1.21-13.51,1.82-20.26c0.55-6.09,1.09-12.18,1.63-18.27c0.2-2.29,0.4-4.59,0.6-6.92c-18.02,0-35.95,0-53.95,0
	c0.24,3.4,0.47,6.73,0.7,10.05c13.96,0,27.77,0,41.64,0c-0.27,3.62-0.53,7.18-0.8,10.86c-13.27,0.16-26.47,0.31-39.76,0.47
	c0.36,3.47,0.71,6.8,1.07,10.16C59.48,71.76,72.02,71.76,84.61,71.76z"/>
</svg>
