<?xml version="1.0" encoding="utf-8"?>
<!-- Generator: Adobe Illustrator 26.0.0, SVG Export Plug-In . SVG Version: 6.00 Build 0)  -->
<svg version="1.1" id="Calque_1" xmlns="http://www.w3.org/2000/svg" xmlns:xlink="http://www.w3.org/1999/xlink" x="0px" y="0px"
	 viewBox="0 0 141.73 141.73" style="enable-background:new 0 0 141.73 141.73;" xml:space="preserve">
<style type="text/css">
	.st0{fill:#febe13;}
</style>
<g>
	<path class="st0" d="M122.44,27.76c0,21.69,0,43.38,0,65.07c-0.31,0.08-0.26,0.38-0.31,0.57c-1.18,4.88-5.77,7.8-10.64,7.73
		c-9.89-0.14-19.78-0.03-29.68-0.06c-0.68,0-0.91,0.13-0.89,0.86c0.05,2.25,0.02,4.49,0.02,6.74c0,1.68,0,1.68,1.64,1.68
		c5.41,0.02,9.55,3.55,10.38,8.87c0.27,1.72-0.1,2.48-1.55,3.22c-13.83,0-27.67,0-41.5,0c-0.6-0.62-1.26-1.2-1.2-2.18
		c0.17-2.94,1.25-5.45,3.5-7.42c2.17-1.9,4.73-2.59,7.54-2.47c0.92,0.04,1.09-0.24,1.07-1.09c-0.06-2.42-0.06-4.83,0-7.25
		c0.02-0.82-0.23-0.96-0.99-0.96c-10.1,0.03-20.21,0.03-30.31,0.01c-5.69-0.01-10.2-4.46-10.21-10.11
		c-0.02-20.51-0.02-41.02,0-61.53c0.01-5.62,4.48-10.13,10.09-10.13c27.66-0.02,55.32-0.03,82.98,0.01
		c3.92,0.01,6.88,1.89,8.85,5.32C121.8,25.63,121.91,26.77,122.44,27.76z M70.88,23.32c-13.7,0-27.4-0.01-41.09,0
		c-3.81,0-6.45,2.5-6.45,6.21c-0.02,16.89-0.01,33.78-0.03,50.66c0,0.66,0.21,0.76,0.79,0.75c2.52-0.03,5.04-0.05,7.55,0.01
		c0.84,0.02,0.95-0.27,0.95-1c-0.02-9.54-0.01-19.07-0.02-28.61c0-0.57,0.01-1.13,0.28-1.67c2.64-5.26,5.27-10.53,7.91-15.8
		c0.35-0.71,0.88-1.2,1.68-1.28c1.09-0.11,1.74,0.52,2.19,1.43c2.55,5.12,5.11,10.24,7.68,15.35c0.31,0.62,0.42,1.25,0.42,1.93
		c-0.01,9.57,0,19.14-0.03,28.71c0,0.77,0.19,0.93,0.93,0.92c2.72-0.05,5.44-0.06,8.16,0c0.84,0.02,1.03-0.2,1.05-1.03
		c0.16-7.02,0.53-14.02,1.74-20.95c0.11-0.63-0.16-0.98-0.56-1.38c-2.95-2.98-3.8-7.46-1.92-11.23c2.14-4.29,4.72-8.33,7.1-12.48
		c1.12-1.96,2.86-1.93,4,0.05c2.15,3.71,4.25,7.45,6.44,11.13c2.67,4.5,1.88,9.93-2.01,13.19c-0.35,0.29-0.46,0.57-0.38,1.03
		c0.25,1.59,0.46,3.19,0.65,4.79c0.63,5.34,0.86,10.7,0.97,16.08c0.01,0.69,0.24,0.81,0.86,0.8c2.75-0.03,5.51-0.05,8.26,0.01
		c0.87,0.02,1.02-0.24,1.01-1.05C88.99,65.15,89,50.37,89,35.6c0-0.3-0.01-0.61,0.01-0.91c0.08-1.27,0.83-2.08,2.12-2.09
		c5.3-0.03,10.61-0.02,15.91,0c1.09,0,1.82,0.62,2.03,1.61c0.08,0.39,0.08,0.8,0.08,1.2c0,14.87,0.01,29.75-0.02,44.62
		c0,0.75,0.17,0.95,0.93,0.93c2.42-0.05,4.84-0.07,7.25,0c0.92,0.03,1.13-0.23,1.13-1.13c-0.03-16.55-0.02-33.1-0.02-49.66
		c0-4.42-2.43-6.85-6.84-6.85C98.01,23.32,84.45,23.32,70.88,23.32z M70.87,84.97c-15.54,0-31.08,0.01-46.62-0.02
		c-0.72,0-0.98,0.12-0.95,0.91c0.07,1.61,0.01,3.22,0.02,4.83c0.03,3.77,2.56,6.35,6.31,6.36c27.49,0.01,54.97,0.01,82.46,0
		c3.75,0,6.28-2.59,6.31-6.36c0.01-1.58-0.06-3.16,0.03-4.73c0.05-0.88-0.25-1.01-1.05-1.01C101.88,84.98,86.37,84.97,70.87,84.97z
		 M93.03,58.77c0,7.05,0.01,14.09-0.02,21.14c0,0.8,0.13,1.07,1.01,1.05c3.05-0.06,6.11-0.02,9.16-0.02c1.94,0,1.95,0,1.93-1.99
		c-0.01-0.66,0.29-1.5-0.14-1.92c-0.31-0.31-1.14-0.1-1.74-0.12c-0.07,0-0.13,0-0.2-0.01c-1.11-0.13-1.91-0.94-1.93-1.97
		c-0.02-1.06,0.8-1.93,1.96-2.03c0.47-0.04,0.94-0.05,1.41-0.01c0.55,0.05,0.67-0.16,0.66-0.68c-0.03-1.81-0.01-3.62-0.01-5.44
		c0-1.86,0-1.85-1.87-1.96c-0.1-0.01-0.2-0.01-0.3-0.02c-1.05-0.15-1.82-0.96-1.85-1.94c-0.03-1.01,0.76-1.91,1.85-2.04
		c0.5-0.06,1.01-0.06,1.51-0.02c0.51,0.04,0.7-0.11,0.68-0.66c-0.04-1.07,0-2.15-0.02-3.22c-0.01-0.7,0.18-1.54-0.14-2.04
		c-0.27-0.41-1.18-0.08-1.81-0.14c-0.03,0-0.07,0-0.1-0.01c-1.16-0.12-1.98-0.98-1.96-2.04c0.02-1.03,0.82-1.85,1.93-1.96
		c0.37-0.04,0.74-0.05,1.11-0.01c0.74,0.09,1.08-0.1,1-0.94c-0.09-0.93-0.01-1.88-0.02-2.82c-0.01-0.73,0.2-1.62-0.13-2.15
		c-0.29-0.45-1.24-0.08-1.9-0.15c-1.16-0.12-1.99-0.96-1.98-2.02c0.01-1.02,0.81-1.82,1.91-1.99c0.7-0.11,1.66,0.38,2.03-0.26
		c0.32-0.55,0.07-1.44,0.07-2.18c0-0.27-0.03-0.54,0.01-0.8c0.11-0.68-0.19-0.82-0.82-0.81c-3.46,0.03-6.91,0.04-10.37-0.01
		c-0.76-0.01-0.92,0.19-0.92,0.93C93.04,44.61,93.03,51.69,93.03,58.77z M71.21,38.45c-1.9,3.33-3.77,6.43-5.46,9.62
		c-1.28,2.41-0.48,5.42,1.66,7.15c2.12,1.72,5.16,1.86,7.17,0.34c2.44-1.84,3.45-4.76,2.17-7.26C75.07,45,73.13,41.83,71.21,38.45z
		 M53.2,118.37c11.78,0,23.56,0,35.35,0c-0.89-2.51-3.01-3.97-5.82-3.98c-5.37-0.02-10.73,0-16.1,0c-2.58,0-5.17-0.02-7.75,0.01
		C56.16,114.43,54.05,115.91,53.2,118.37z M36.62,66.74c0,3.69-0.01,7.39,0.01,11.08c0.01,1.03-0.45,2.4,0.2,2.98
		c0.56,0.51,1.92,0.08,2.91,0.16c0.76,0.06,0.93-0.17,0.93-0.92c-0.03-8.02-0.01-16.05-0.03-24.07c0-1.06,0.46-2.48-0.2-3.07
		c-0.58-0.52-1.98-0.1-3.01-0.17c-0.66-0.04-0.83,0.16-0.82,0.82C36.64,57.94,36.62,62.34,36.62,66.74z M44.68,66.84
		c0,3.66-0.01,7.32,0.01,10.98c0.01,1.03-0.45,2.4,0.2,2.98c0.57,0.5,1.92,0.08,2.92,0.16c0.76,0.06,0.93-0.18,0.93-0.93
		c-0.03-8.02-0.01-16.05-0.03-24.07c0-1.06,0.46-2.48-0.2-3.07c-0.58-0.52-1.98-0.1-3.01-0.16c-0.67-0.04-0.83,0.17-0.82,0.82
		C44.69,57.98,44.68,62.41,44.68,66.84z M70.8,110.36c1.81,0,3.63-0.01,5.44,0.01c0.49,0.01,0.7-0.08,0.69-0.64
		c-0.03-2.65-0.02-5.3-0.01-7.96c0-0.49-0.08-0.7-0.64-0.69c-3.59,0.03-7.18,0.02-10.77,0.01c-0.49,0-0.7,0.08-0.69,0.64
		c0.03,2.65,0.04,5.3,0,7.96c-0.01,0.62,0.22,0.7,0.75,0.69C67.31,110.34,69.05,110.36,70.8,110.36z M70.89,72.88
		c1.04,0,2.08-0.01,3.12,0.01c0.45,0.01,0.62-0.05,0.59-0.6c-0.23-3.75-0.63-7.48-1.12-11.2c-0.06-0.49-0.16-0.68-0.74-0.58
		c-1.16,0.19-2.34,0.22-3.49-0.09c-0.65-0.18-0.87,0.05-0.95,0.68c-0.49,3.72-0.93,7.45-1.14,11.2c-0.03,0.54,0.15,0.6,0.6,0.59
		C68.81,72.87,69.85,72.88,70.89,72.88z M37.9,48.64c3.24,0,6.32,0,9.53,0c-1.59-3.19-3.14-6.27-4.76-9.53
		C41.04,42.37,39.5,45.45,37.9,48.64z M70.77,80.94c0.3,0,0.6,0.02,0.9,0c1.06-0.07,2.52,0.47,3.06-0.21
		c0.52-0.65,0.1-2.05,0.1-3.12c0-0.03-0.01-0.07,0-0.1c0.06-0.5-0.18-0.62-0.64-0.61c-1.34,0.03-2.68-0.02-4.02,0.02
		c-1.06,0.03-2.53-0.47-3.06,0.2c-0.55,0.71-0.19,2.11-0.26,3.21c-0.03,0.49,0.13,0.63,0.61,0.62
		C68.56,80.92,69.67,80.94,70.77,80.94z"/>
	<path class="st0" d="M68.91,89c1.88,0,3.75-0.01,5.63,0c1.44,0.01,2.39,0.84,2.37,2.04c-0.02,1.16-0.94,1.98-2.32,1.98
		c-3.82,0.01-7.64,0.01-11.46,0c-1.38-0.01-2.3-0.82-2.32-1.99c-0.02-1.2,0.93-2.02,2.37-2.03C65.09,88.99,67,89,68.91,89z"/>
	<path class="st0" d="M82.99,93.02c-1.04,0.02-2-0.89-2.03-1.95c-0.04-1.08,0.94-2.07,2.02-2.06c1.05,0.01,1.98,0.95,1.98,2
		C84.96,92.06,84.04,93,82.99,93.02z"/>
</g>
</svg>
