<?xml version="1.0" encoding="utf-8"?>
<!-- Generator: Adobe Illustrator 26.0.0, SVG Export Plug-In . SVG Version: 6.00 Build 0)  -->
<svg version="1.1" id="Calque_1" xmlns="http://www.w3.org/2000/svg" xmlns:xlink="http://www.w3.org/1999/xlink" x="0px" y="0px"
	 viewBox="0 0 141.73 141.73" style="enable-background:new 0 0 141.73 141.73;" xml:space="preserve">
<style type="text/css">
	.st0{fill:#febe13;}
</style>
<g>
	<path class="st0" d="M122.4,65.05c-0.54,1.36-0.55,2.85-0.98,4.24c-2.43,7.99-7.49,13.62-15.17,16.88
		c-3.77,1.6-7.75,2.02-11.81,1.86c-2.46-0.1-4.27-1.96-4.25-4.31c0.02-2.32,1.82-4.16,4.24-4.21c2.75-0.05,5.48-0.13,8.11-1.11
		c7.31-2.73,11.75-9.7,11.19-17.69c-0.5-7.16-6.22-13.62-13.46-15.19c-0.65-0.14-1.32-0.23-1.98-0.34c-2.6-0.43-3.66-1.4-4.27-3.96
		c-0.85-3.6-2.69-6.6-5.46-9.05c-8.93-7.88-23.26-4.25-27.35,6.94c-0.33,0.91-0.62,1.85-1.32,2.57c-0.92,0.94-2.04,1.4-3.35,1.32
		c-6.05-0.37-11.21,4.28-11.44,10.31c-0.13,3.5-1.95,5.08-5.45,4.75c-4.67-0.45-9.11,2.23-10.92,6.6
		c-1.81,4.38-0.54,9.29,3.14,12.35c2.12,1.76,4.55,2.48,7.25,2.48c6.84,0,13.69-0.01,20.53,0c2.49,0,4.1,1.17,4.64,3.32
		c0.61,2.45-1.18,5.01-3.71,5.18c-1.4,0.1-2.82,0.05-4.22,0.05c-6.17-0.01-12.35,0.08-18.52-0.06c-8.41-0.2-15.83-6.25-17.89-14.38
		c-2.87-11.34,4.48-22.24,16.2-24c0.64-0.1,0.88-0.32,1.06-0.91c2.42-7.91,7.69-12.65,15.86-14.09c0.53-0.09,0.86-0.29,1.12-0.81
		c4.08-7.98,10.55-12.73,19.39-14.19c11.49-1.89,23.6,5.18,27.67,16.12c0.32,0.86,0.67,1.4,1.69,1.66
		c10.24,2.6,17.74,11.08,19.23,21.62c0.03,0.2-0.11,0.49,0.22,0.59C122.4,61.42,122.4,63.24,122.4,65.05z"/>
	<path class="st0" d="M76.3,122.42c-1.42-0.59-2.45-1.67-3.51-2.73c-3.69-3.71-7.4-7.4-11.09-11.1c-1.57-1.58-1.97-3.38-1.18-5.11
		c1.26-2.75,4.71-3.37,6.98-1.22c1.58,1.5,3.09,3.07,4.63,4.61c0.23,0.23,0.48,0.45,0.73,0.69c0.3-0.37,0.15-0.75,0.16-1.09
		c0.01-10.26,0-20.52,0.01-30.79c0-2.53,1.2-4.18,3.38-4.7c2.41-0.57,4.91,1.22,5.14,3.68c0.04,0.47,0.05,0.94,0.05,1.41
		c0,10.13,0,20.26,0,30.38c0,0.33,0,0.66,0,0.99c0.44,0.1,0.55-0.25,0.74-0.43c1.7-1.67,3.34-3.4,5.09-5.01
		c1.46-1.34,3.62-1.4,5.21-0.3c1.58,1.1,2.24,3.16,1.59,4.98c-0.25,0.71-0.7,1.29-1.22,1.81c-4.13,4.13-8.26,8.25-12.37,12.38
		c-0.72,0.72-1.6,1.14-2.51,1.53C77.5,122.42,76.9,122.42,76.3,122.42z"/>
	<path class="st0" d="M81.55,55.94c0,0.8,0.04,1.61-0.01,2.41c-0.15,2.25-2,3.94-4.28,3.92c-2.23-0.02-4.09-1.69-4.19-3.89
		c-0.08-1.67-0.08-3.35,0-5.02c0.11-2.24,2.05-3.98,4.27-3.95c2.21,0.03,4.06,1.73,4.2,3.92C81.6,54.2,81.55,55.07,81.55,55.94z"/>
</g>
</svg>
