<svg xmlns="http://www.w3.org/2000/svg" xmlns:xlink="http://www.w3.org/1999/xlink" viewBox="0 0 566.93 566.93"><defs><style>.cls-1{isolation:isolate;}.cls-2{fill:#083746;}.cls-3{fill:#231f20;}.cls-4{fill:#5e3b22;}.cls-5{fill:#462918;}.cls-6{fill:#ddcbbf;}.cls-7{fill:#ce78b1;opacity:0.6;}.cls-12,.cls-7{mix-blend-mode:multiply;}.cls-8{fill:#5e3029;}.cls-9{fill:#f4dae9;mix-blend-mode:soft-light;}.cls-10,.cls-12{fill:#723b30;}.cls-11{fill:url(#Áåçûìÿííûé_ãðàäèåíò_300);}.cls-13{fill:#de6b7d;}.cls-14,.cls-18,.cls-19{fill:#fff;}.cls-15{fill:url(#Áåçûìÿííûé_ãðàäèåíò_300-2);}.cls-16{fill:#3a1e18;}.cls-17{fill:#febe13;}.cls-18{opacity:0.19;}.cls-19{opacity:0.2;}.cls-20,.cls-21,.cls-22{fill:none;stroke-miterlimit:10;}.cls-20{stroke:#febe13;stroke-width:5.46px;}.cls-21,.cls-22{stroke:#bcbcbc;}.cls-22{stroke-linecap:round;stroke-width:2px;}</style><linearGradient id="Áåçûìÿííûé_ãðàäèåíò_300" x1="357.72" y1="236.23" x2="357.72" y2="194.87" gradientTransform="translate(-0.09 -12.43) rotate(2.52)" gradientUnits="userSpaceOnUse"><stop offset="0" stop-color="#ede1ef"/><stop offset="1" stop-color="#c0c7e6"/></linearGradient><linearGradient id="Áåçûìÿííûé_ãðàäèåíò_300-2" x1="283.58" y1="241.51" x2="283.58" y2="200.15" gradientTransform="matrix(-1, 0.08, 0.08, 1, 484.03, -23.73)" xlink:href="#Áåçûìÿííûé_ãðàäèåíò_300"/></defs><g class="cls-1"><g id="Layer_1" data-name="Layer 1"><circle class="cls-2" cx="284.18" cy="349.46" r="171.17" transform="translate(-163.87 303.3) rotate(-45)"/><path class="cls-3" d="M227.18,226.52c-6.82,5.91-2.81,12.46-2.81,12.46s-6.11-4.68-9.79-1.42,1.2,9.28,1.2,9.28a15.22,15.22,0,0,0-16.51,4.36c-7.56,8.09,2,15.63,2,15.63s-12.88.73-15.27,6.35,8.4,10.46,8.4,10.46S182.1,285.55,180.79,297s9.86,12.27,9.86,12.27-11.78,7.77-9.15,15.65S193,330,193,330s-7.9,6.73-6.14,11.23,10.54,2.44,10.54,2.44-10.74,8.82-8.12,14.85c2.12,4.86,12.75,2.39,16.8,1.25l.33.47c-2.64,2.06-8.33,7-6.11,10.15,2.85,4,13.84-.34,13.84-.34s-11.51,14.75-1.09,22.66,20.28-6.69,20.28-6.69-8.11,11.71-3.28,14.5,12.56-6,12.56-6-4.84,12.4,3.53,15.66,10.94-11,10.94-11-.89,8.12,5,10.81,10.44-7.28,10.44-7.28-1.55,14.2,6.79,14.9,12.94-17.05,12.94-17.05.2,11.3,13.08,9.84,10.24-16.74,10.24-16.74,2.72,10.76,10.25,7.24,2.73-15,2.73-15,12.88,9.52,24.07-2.81S356,359.71,356,359.71s11.68,5.79,14.73-1.47c2.84-6.76-6.31-11.27-7.58-11.85v0c1.61.49,16,4.56,17.31-5.94,1.42-11.13-10.89-14.49-10.89-14.49s13.65.43,14.13-7.73-12.64-6.1-12.64-6.1,14.06-5,12.38-14-14.12-6.7-14.12-6.7,15.44-7.31,10.24-17.93S361.62,269,361.62,269s8.05-10.18,3.44-16.09-12.18,2-12.18,2,6.63-8.31,1.08-13.84S343.08,244,343.08,244s4.83-7.61-4.3-12.85c-7.43-4.26-12.12-1.56-13.62-.4-.32-.18-.63-.37-1-.54a27.79,27.79,0,0,0-8.68-10.35c-5.85-4.24-14,0-16.11,1.21a90.82,90.82,0,0,0-26.32-1.6c-12.85-.84-26.22-1.49-29-.79-4,1-3.36,6.53-2.71,9.55l-1,.47C237.85,226.22,232.21,222.16,227.18,226.52Z"/><path class="cls-3" d="M350.4,359.38c-.85-.81-2.22.63-1.43,1.51,6.15,6.83,10.1,16.74,4.17,25.14-7.13,10.1-20.9,6.92-27.54-2-.66-.89-1.83.16-1.3,1,6,9.91,20.45,13.13,28.84,4.49C361.68,380.71,358.63,367.17,350.4,359.38Z"/><path class="cls-3" d="M348.4,258.38c3.36-2.6,14.46-13.47,17.91-5.72,1.14,2.57-.82,7.28-2,9.71a18.36,18.36,0,0,1-1.2,2.12c-3.37.95-6.65,2.44-7.95,5.6-.2.52.4,1.21.94.9l2-1.2c-.12.1-.23.21-.36.3-.85.66.19,2,1,1.3a25.65,25.65,0,0,0,4.4-4.17,22.72,22.72,0,0,1,2.33-.77c3.23-.84,7.22-2.61,10.36-1.43,4.52,1.72,3.67,7.79,1.53,11.25-1.69,2.74-4.5,4.84-7.28,6.6a27.45,27.45,0,0,0-5.09,1.85.83.83,0,0,0,.66,1.53l2.45-.73a.74.74,0,0,0,.6,0l.66-.32a34.17,34.17,0,0,1,6.61-1.27,17.85,17.85,0,0,1,6.23.21c4.28,1.25,7.63,6.11,5.9,10.7-1.9,5-6.62,9.08-11.82,11.33a34.48,34.48,0,0,0-11.86,1.54c-1.16.4-.54,2.07.57,2,4.79-.42,16.3-3.47,18.34,2.65,1.24,3.74-2.32,6.42-5.05,8.32a14.42,14.42,0,0,1-2.81,1.53,22,22,0,0,0-10,.17c-1.09.3-1.26,2,0,2.11.5.05,1,.09,1.55.12.07,0,.1.09.19.1,1.31.1,2.58.16,3.81.14,6.32.41,13.12,1.55,13.8,9.22.59,6.71-7.08,11.21-12.93,11a63.7,63.7,0,0,1-7.8-1,23.27,23.27,0,0,0-4.1-1.22,1,1,0,0,0-.81,1.61.77.77,0,0,0,.59.56l.57.13c6,2.9,18.6,7.06,11.08,15.4-5.5,6.1-16.18,3.23-20.63-2.93-.34-.46-1.17,0-.88.53,4.62,8.19,16.5,10.86,23.2,3.81,5.33-5.61,2.12-11-3-14.64,3.21.47,6.38.43,9.15-1,4.21-2.22,8.6-6.47,8.56-11.56,0-5.92-4.16-9.75-9.3-11.62a16.16,16.16,0,0,0,1.69-1.05c3.15-2.27,6.29-5,5.66-9.2a7.33,7.33,0,0,0-5.6-6.08c-.52-.13-1.08-.23-1.64-.32,6.43-3.1,11.65-8.85,11.08-16.3-.6-7.69-8.19-9-15.26-8.1,5.65-4.39,10.08-11.23,4.91-17.77-3-3.78-7.41-1.87-11.37-.94l-2.55.59a20.58,20.58,0,0,0,1.32-2.85c1.25-3.34,2.79-7.4.27-10.52-5.27-6.52-16.58,2-20.14,6.56C346.33,257.93,347.55,259,348.4,258.38Z"/><path class="cls-3" d="M191.17,261.34c-2.53-4.35-2.62-9.28,3.67-12,6.88-3,13,.77,19.15,3.52,1,.46,1.74-1,.91-1.69-6.72-5.39-19.24-9-25.16-.46a10.12,10.12,0,0,0-.63,10.85c-5.82.77-11,3.61-12.68,9.65-1.3,4.65,2.8,8.57,6.32,11a23.06,23.06,0,0,0,16.57,3.8.59.59,0,0,0-.17-1.16c-7,.68-26.3-4.54-19.9-15.64,2.36-4.08,6.36-5.77,10.74-6.15a20.06,20.06,0,0,0,9,7.19.67.67,0,0,0,.48-1.25,20,20,0,0,1-7.23-6,40.88,40.88,0,0,1,13.05,2.61c.66.24,1.28-.77.61-1.14A29.54,29.54,0,0,0,191.17,261.34Z"/><path class="cls-3" d="M208.8,232.65c-3.63,7.08,4.43,16.89,11.45,18,.76.11.84-1,.12-1.16-4.86-1.11-14.41-11.13-9.51-16.3,5.07-5.36,10.73,2.29,15.57,3.68.43.12.95-.29.72-.76C224.42,230.41,212.52,225.37,208.8,232.65Z"/><path class="cls-3" d="M180.36,340c-.79-6.1,6.52-8.47,10.41-10.76a.74.74,0,0,0-.21-1.4c-5.92-.71-13.87,7.38-12,13.39s8,5.67,13,4c-4.65,4-8,9.83-4.76,14.85,5.82,8.95,18.2,4,25.21-.64.8-.52,0-1.86-.87-1.44-5.56,2.75-14.52,7.75-20.39,3.41-9.33-6.9,3.46-16.07,9.33-19.13.82-.43.54-2-.48-1.69a19.13,19.13,0,0,0-5,2.38C190.12,344.61,181.24,346.81,180.36,340Z"/><path class="cls-3" d="M250.8,395.9c-2.33,2.81-4.58,6.19-7.61,8.31-2.77,1.94-8.24,3-11.17.28-5.41-5.07.44-15.36,4.3-19.5,1-1-.67-2.34-1.7-1.61-5.72,4-11.21,17.2-4.3,22.42,9.12,6.89,17.05-1.37,22.24-8.63C253.38,396,251.69,394.83,250.8,395.9Z"/><path class="cls-3" d="M297.67,221.25c-.25.19-.53.36-.78.55-.6.47.12,1.31.73.91,1.09-.7,2.21-1.35,3.35-1.94,4.89-1.18,10.22-.47,15.16,0a69.23,69.23,0,0,1,16.06,3.76c.78.27,1.49-.86.72-1.34-5.09-3.13-11.53-3.87-17.38-4.38-2.81-.25-5.66-.54-8.47-.53a34.15,34.15,0,0,1,5.48-1.31c5-.71,9.63.21,14.59.64a.85.85,0,0,0,.4-1.64c-8.14-3.74-18.39-1.55-26.22,2.92a18.8,18.8,0,0,0-3.41,1.1A.77.77,0,0,0,297.67,221.25Z"/><path class="cls-3" d="M314,389.48a.76.76,0,0,0-1.13.91c1.35,3.16,2.71,6,2.92,9.5.18,2.95.25,8.21-1.32,10.87-6.25,10.53-16.13-.36-20.07-8.66.06-.67.11-1.34.14-2a.9.9,0,0,0-1.3-.84,11.77,11.77,0,0,1-.44-1.69.32.32,0,0,0-.63.1,18.26,18.26,0,0,0,.48,3.11c-1.15,7.71-8.79,29.57-18.67,20.62-6.4-5.8-2.82-19.74-1.11-27.28.16-.72-1-1-1.22-.3-2.9,7.44-6.4,29,5.08,31.82,4.47,1.08,8.33-3,10.86-6.07A31.18,31.18,0,0,0,294,404.9c3.45,7.9,11.18,15.42,19.35,10.47C320.55,411,320.23,394.35,314,389.48Z"/><circle class="cls-3" cx="282.55" cy="198.45" r="156.5" transform="translate(-57.57 257.92) rotate(-45)"/><path class="cls-4" d="M320.72,420s-9.78,21.22-38.12,21.22S244.47,420,244.47,420l.09-24.1.18-44.32L282.6,359l37.86-7.39.07,18.15Z"/><path class="cls-5" d="M320.53,378.3c-15.87,9.82-43,23.26-76,26.17l.18-44.32,37.86,7.4,37.86-7.4Z"/><ellipse class="cls-4" cx="282.6" cy="229.92" rx="131.48" ry="141.8"/><path class="cls-3" d="M422.29,227.81q0,12-1.12,23.89-.32,3.31-.71,6.63c-18.15-18.5-6.18-36.95-19.46-80.11-6.52-21.17-21.34-31.9-38.4-39.43-18.42-8.14-39.47-12.55-55.49-22.36a87.81,87.81,0,0,1-9.4-6.57C290.81,104.27,287,99,285,94.36A23,23,0,0,1,283,86.89h16.79a109.5,109.5,0,0,1,59.06,17.45,125.36,125.36,0,0,1,27.53,23.83c.65.74,1.28,1.48,1.9,2.24C409.36,155.71,422.29,190,422.29,227.81Z"/><path d="M308.52,184s2.19-9,4.89-12c0,0,23.85-4.22,37.27-5.36,16-1.36,20.8-.51,20.8-.51s8,2.16,14.2,12c0,0-8.74-6.79-15.41-7C349.9,170.49,321,177.35,308.52,184Z"/><path d="M308.52,184s-1.26-7.69,1.32-11.34h-2.46S305.59,177,308.52,184Z"/><path d="M252.83,184s-2.19-9-4.9-12c0,0-23.84-4.22-37.26-5.36-16-1.36-20.81-.51-20.81-.51s-8,2.16-14.2,12c0,0,8.74-6.79,15.41-7C211.45,170.49,240.36,177.35,252.83,184Z"/><path d="M252.83,184s1.25-7.69-1.33-11.34H254S255.75,177,252.83,184Z"/><path class="cls-3" d="M282.55,86.89a23,23,0,0,1-1.93,7.47c-1.84,4.21-5.19,9-11,14a82.19,82.19,0,0,1-11.17,8.06c-9.18,5.63-20,9.47-31,13.26-26.07,9-53.32,17.59-62.83,48.53-13.28,43.16-1.31,61.61-19.46,80.11q-.41-3.31-.71-6.63-1.12-11.87-1.12-23.89c0-38.91,13.71-74.14,35.87-99.64,1.81-2.09,3.69-4.12,5.61-6.07A121,121,0,0,1,220.09,97a108.35,108.35,0,0,1,45.67-10.13Z"/><path class="cls-4" d="M156.71,232.58s-15.9-20.4-33.85-13.73-9.24,55.8,9.23,63,27.7-8.72,27.7-8.72Zm-17.43,48.27a5.49,5.49,0,1,1,5.49-5.49A5.49,5.49,0,0,1,139.28,280.85Z"/><path class="cls-5" d="M126.52,256.84a1.58,1.58,0,0,1-1-.37,1.62,1.62,0,0,1-.23-2.27c.6-.73,6-7.23,10.9-7.95a1.62,1.62,0,0,1,.47,3.2c-3.09.45-7.55,5.17-8.86,6.79A1.64,1.64,0,0,1,126.52,256.84Z"/><path class="cls-5" d="M144.13,265.05a1.61,1.61,0,0,1-1.55-1.16,49,49,0,0,0-19.8-26.84,1.61,1.61,0,0,1,1.62-2.78A51.42,51.42,0,0,1,145.68,263a1.62,1.62,0,0,1-1.1,2A1.74,1.74,0,0,1,144.13,265.05Z"/><path class="cls-5" d="M262.13,286.92s3.92-9.77,20.95-9.77,20.57,9.77,20.57,9.77.92-12.24-20.76-12.24C263.71,274.68,262.13,286.92,262.13,286.92Z"/><path class="cls-6" d="M427.57,443.29c-36.85-15.48-104.09-27.14-104.09-27.14-25.82,21.72-58.46,21.58-78.76,0,0,0-68.08,10.08-106.51,23.54a167.06,167.06,0,0,0,138,85.1c2.66.08,5.31.19,8,.19A167,167,0,0,0,427.57,443.29Z"/><path class="cls-7" d="M254.53,324.32s10.34,16.43,29.11,16.43,27.61-14.93,27.61-14.93Z"/><path class="cls-8" d="M248.44,316s10.1,22.88,35.11,22.88,32.57-23,32.57-23-20.88,2.89-26.3,4.72-10.33,0-15.12-1.19S248.44,316,248.44,316Z"/><polygon class="cls-9" points="301.56 319.35 307.55 320.68 303.41 324.44 299.65 321.89 301.56 319.35"/><path class="cls-9" d="M298,323.36l2.25,2a3.45,3.45,0,0,0-3.85.65c-1.26,1.05-6.42,1.42-8.49,2.65l-1.55-2.1A21.61,21.61,0,0,0,298,323.36Z"/><path class="cls-8" d="M316.86,316c-13.39-13.25-29.09-9.37-29.09-9.37-7.27,2.38-11.74,0-11.74,0s-15.35-4.82-27.11,9.33l34,6.05Z"/><path class="cls-5" d="M316.12,315.88c-8.68,2.32-12.79,1.06-21.22,2.78a51.46,51.46,0,0,1-22.9,0c-8.42-1.72-14.53,0-23-3.31-1.12-.44-2.86-1.4-2.86-1.4v1.58s11.68,2.76,20.08,3.18S277.67,323,283.45,323s8.84-3.85,17.24-4.27,19-3.18,19-3.18V314A17.43,17.43,0,0,1,316.12,315.88Z"/><path class="cls-5" d="M264.05,347.19s5.58,4.48,18.15,4.48c14.3,0,19.53-4.48,19.53-4.48S282.89,367,264.05,347.19Z"/><path class="cls-10" d="M380.7,221.62l4.93,3.49s-5.4,9.23-28,13.17a88.3,88.3,0,0,1-41.2-2.79S347.6,245.91,380.7,221.62Z"/><path class="cls-11" d="M312.36,233.36c-2.59-3.54,15.51-30.12,35.35-34.11s34.42,6.65,35.19,10.57,1,20.63-26.81,27.42C338.07,241.64,314.61,236.44,312.36,233.36Z"/><path class="cls-10" d="M367.59,218.32A20.45,20.45,0,1,1,348.06,197,20.46,20.46,0,0,1,367.59,218.32Z"/><circle class="cls-10" cx="347.16" cy="217.42" r="19.25" transform="translate(7.44 446.29) rotate(-66.03)"/><circle class="cls-12" cx="347.16" cy="217.42" r="12.49" transform="translate(-34.22 67.95) rotate(-10.66)"/><path class="cls-10" d="M312.67,230s13.44-30.64,35.77-35.59,33.09,13.16,33.09,13.16-11.3-12.2-33.82-8.29C326.61,202.91,312.67,230,312.67,230Z"/><path class="cls-3" d="M312.67,230s13.6-25.85,35.8-29.66,34.16,8.77,34.16,8.77l6.94-6.71-5-.55s-13.69-9-30.49-7.16C336,196.69,320.54,213.38,312.67,230Z"/><path class="cls-13" d="M313.27,228.9s3.14,6.86,7.45,7.76c0,0-9.47-1.49-9.6-3.36S313.27,228.9,313.27,228.9Z"/><path class="cls-14" d="M361.72,213.77c-1.28,1,4.43,1.56,8.78.07,3.89-1.33,5.85-3.71,5.5-4.16S366.78,209.66,361.72,213.77Z"/><path class="cls-14" d="M358.41,214.72c-1.59-.63-3.53.13-3.64,1s1.85,2,2.8,1.71S359.31,215.07,358.41,214.72Z"/><path class="cls-7" d="M313.27,228.9s29.27-37.52,69.63-19.08l-.27-.74s-7.15-12.18-30.73-10.47S315.42,224.5,313.27,228.9Z"/><path class="cls-10" d="M185.74,222.65l-4.82,3.66s5.72,9,28.46,12.2a88.3,88.3,0,0,0,41.09-4.19S219.64,245.8,185.74,222.65Z"/><path class="cls-15" d="M254.44,232.05c2.46-3.62-16.53-29.57-36.5-32.88s-34.17,7.82-34.81,11.76-.32,20.65,27.73,26.5C229,241.21,252.29,235.21,254.44,232.05Z"/><circle class="cls-10" cx="215.09" cy="217.96" r="19.25" transform="matrix(0.96, -0.27, 0.27, 0.96, -50.26, 65.13)"/><circle class="cls-16" cx="215.26" cy="218.65" r="12.49" transform="translate(-76.08 314.92) rotate(-63.73)"/><path class="cls-10" d="M254,228.68s-14.47-30.17-36.95-34.36-32.63,14.28-32.63,14.28,10.88-12.57,33.52-9.43C239.15,202.11,254,228.68,254,228.68Z"/><path class="cls-3" d="M254,228.68s-14.46-25.37-36.78-28.43-33.84,9.93-33.84,9.93l-7.17-6.47,4.94-.71s13.38-9.51,30.23-8.2C229.59,196.21,245.57,212.36,254,228.68Z"/><path class="cls-13" d="M253.37,227.63s-2.9,7-7.18,8c0,0,9.41-1.8,9.48-3.67S253.37,227.63,253.37,227.63Z"/><path class="cls-14" d="M204.44,214.16c1.31,1-4.38,1.71-8.78.37-3.94-1.2-6-3.51-5.64-4S199.23,210.22,204.44,214.16Z"/><path class="cls-17" d="M308.68,224h-5.63a24,24,0,0,0-40.14,0h-5.64a28.83,28.83,0,0,1,51.41,0Z"/><circle class="cls-18" cx="212.44" cy="226.58" r="48.05"/><circle class="cls-19" cx="353.52" cy="226.58" r="48.05"/><circle class="cls-20" cx="353.52" cy="226.58" r="48.05"/><circle class="cls-20" cx="212.44" cy="225.3" r="48.05"/><circle class="cls-21" cx="139.82" cy="275.36" r="5.49"/><path class="cls-22" d="M452.6,231.45c2.43,0,4.41,3.16,4.42,7.07s-1.95,7.09-4.39,7.1-4.41-3.16-4.42-7.08"/><path class="cls-4" d="M409.07,228.22s15.9-20.41,33.86-13.74,9.23,55.8-9.24,63-27.7-8.73-27.7-8.73Z"/><path class="cls-5" d="M421.65,260.69a1.61,1.61,0,0,0,1.55-1.17A48.83,48.83,0,0,1,443,232.69a1.62,1.62,0,0,0-1.63-2.79,51.42,51.42,0,0,0-21.28,28.72,1.61,1.61,0,0,0,1.1,2A1.41,1.41,0,0,0,421.65,260.69Z"/><path class="cls-5" d="M439.26,252.47a1.61,1.61,0,0,0,1.25-2.63c-.6-.74-6-7.24-10.9-8a1.61,1.61,0,0,0-.47,3.19c3.09.45,7.55,5.18,8.87,6.79A1.59,1.59,0,0,0,439.26,252.47Z"/><path class="cls-22" d="M452.63,245.62c-2.43,0-4.41-3.16-4.42-7.08"/></g></g></svg>