<?xml version="1.0" encoding="utf-8"?>
<!-- Generator: Adobe Illustrator 26.0.0, SVG Export Plug-In . SVG Version: 6.00 Build 0)  -->
<svg version="1.1" id="Calque_1" xmlns="http://www.w3.org/2000/svg" xmlns:xlink="http://www.w3.org/1999/xlink" x="0px" y="0px"
	 viewBox="0 0 141.73 141.73" style="enable-background:new 0 0 141.73 141.73;" xml:space="preserve">
<style type="text/css">
	.st0{fill:#FFFFFF;}
</style>
<g>
	<path class="st0" d="M136.06,72.6c0-36-29.19-65.19-65.19-65.19S5.67,36.59,5.67,72.6c0,28.58,18.39,52.86,43.98,61.66
		c1.56-1.13,3.36-2.51,3.36-4.85c0-3.59-0.08-12.81-0.08-12.81s-2.83,0.48-6.87,0.48c-10.18,0-13.39-6.46-14.92-10.07
		c-1.99-4.71-4.58-6.92-7.32-8.68c-1.69-1.09-2.07-2.36-0.12-2.73C32.7,93.9,35,105.75,41.02,107.63c4.29,1.35,9.81,0.76,12.56-1
		c0.36-3.62,2.98-6.75,5.17-8.39C43.45,96.78,34.38,91.49,29.67,83l-0.5-0.95l-1.18-2.7l-0.35-0.97c-1.47-4.31-2.13-9.25-2.13-14.77
		c0-9.79,3.07-13.49,7.19-18.71c-3.15-11.16,1.13-18.79,1.13-18.79s6.62-1.37,19.14,7.55c6.78-2.89,24.87-3.13,33.44-0.64
		c5.25-3.45,14.86-8.35,18.74-6.98c1.05,1.68,3.31,6.58,1.37,17.34c1.31,2.36,8.16,7.39,8.18,21.61c-0.11,5.24-0.66,9.67-1.68,13.41
		l-0.57,1.91c0,0-0.32,0.9-0.68,1.76l-0.41,0.95c-4.54,9.91-13.85,13.62-28.89,15.15c4.87,3.05,6.27,6.88,6.27,17.24
		s-0.14,11.75-0.11,14.14c0.03,2.11,1.71,3.62,3.23,4.77C117.57,125.59,136.06,101.25,136.06,72.6z"/>
</g>
</svg>
