<?xml version="1.0" encoding="utf-8"?>
<!-- Generator: Adobe Illustrator 26.0.0, SVG Export Plug-In . SVG Version: 6.00 Build 0)  -->
<svg version="1.1" id="Calque_1" xmlns="http://www.w3.org/2000/svg" xmlns:xlink="http://www.w3.org/1999/xlink" x="0px" y="0px"
	 viewBox="0 0 141.73 141.73" style="enable-background:new 0 0 141.73 141.73;" xml:space="preserve">
<style type="text/css">
	.st0{fill:#FFFFFF;}
</style>
<g>
	<path d="M30.15,23.13c28.73,0,57.28,0,85.95,0c-0.31,3.54-0.6,7-0.91,10.46c-0.78,8.78-1.57,17.56-2.36,26.34
		c-0.89,9.97-1.78,19.94-2.67,29.91c-0.59,6.59-1.19,13.17-1.72,19.76c-0.08,0.94-0.38,1.34-1.28,1.59
		c-11.09,3.07-22.17,6.19-33.26,9.26c-0.54,0.15-1.19,0.17-1.72,0.02c-11.04-3.08-22.07-6.21-33.11-9.29
		c-0.84-0.23-1.16-0.58-1.24-1.48c-1.05-12.07-2.15-24.15-3.22-36.22c-1.06-11.89-2.09-23.78-3.14-35.67
		C31.05,32.96,30.6,28.11,30.15,23.13z M49.69,79.05c0,0.52-0.02,0.88,0,1.24c0.37,4.81,0.78,9.61,1.09,14.42
		c0.06,0.96,0.39,1.33,1.29,1.57c6.68,1.81,13.35,3.68,20.02,5.49c0.55,0.15,1.2,0.19,1.74,0.04c6.77-1.84,13.52-3.74,20.29-5.57
		c0.81-0.22,1.08-0.56,1.15-1.38c0.77-8.69,1.59-17.37,2.4-26.05c0.18-1.99,0.36-3.97,0.55-6.12c-13.2,0-26.22,0-39.32,0
		c-0.3-3.72-0.6-7.3-0.9-11c0.73,0,1.28,0,1.82,0c12.08,0,24.15,0,36.23,0c0.73,0,1.49,0.09,2.2-0.04c0.36-0.07,0.91-0.49,0.94-0.8
		c0.35-3.23,0.61-6.47,0.9-9.77c-18.01,0-35.94,0-53.94,0c0.96,10.86,1.91,21.63,2.87,32.54c12.52,0,24.89,0,37.36,0
		c-0.44,4.5-0.84,8.84-1.32,13.16c-0.04,0.35-0.53,0.83-0.91,0.93c-3.48,0.99-6.98,1.93-10.49,2.83c-0.46,0.12-1.01,0.07-1.48-0.05
		c-3.37-0.88-6.73-1.81-10.1-2.69c-0.77-0.2-1.09-0.54-1.15-1.38c-0.17-2.46-0.46-4.91-0.71-7.4
		C56.66,79.05,53.23,79.05,49.69,79.05z"/>
	<path class="st0" d="M49.68,79.05c3.55,0,6.97,0,10.55,0c0.25,2.49,0.54,4.94,0.71,7.4c0.06,0.84,0.37,1.18,1.15,1.38
		c3.37,0.88,6.73,1.81,10.1,2.69c0.47,0.12,1.02,0.17,1.48,0.05c3.51-0.91,7-1.84,10.49-2.83c0.37-0.11,0.87-0.58,0.91-0.93
		c0.48-4.33,0.88-8.67,1.32-13.16c-12.46,0-24.83,0-37.36,0c-0.96-10.91-1.91-21.68-2.87-32.54c18,0,35.93,0,53.94,0
		c-0.29,3.3-0.55,6.54-0.9,9.77c-0.03,0.31-0.58,0.74-0.94,0.8c-0.71,0.13-1.46,0.04-2.2,0.04c-12.08,0-24.15,0-36.23,0
		c-0.54,0-1.09,0-1.82,0c0.3,3.7,0.6,7.28,0.9,11c13.1,0,26.11,0,39.32,0c-0.19,2.14-0.37,4.13-0.55,6.12
		c-0.8,8.68-1.62,17.36-2.4,26.05c-0.07,0.82-0.34,1.16-1.15,1.38c-6.77,1.83-13.52,3.73-20.29,5.57c-0.54,0.15-1.19,0.11-1.74-0.04
		c-6.68-1.82-13.34-3.69-20.02-5.49c-0.9-0.24-1.22-0.61-1.29-1.57c-0.31-4.81-0.72-9.61-1.09-14.42
		C49.66,79.93,49.68,79.56,49.68,79.05z"/>
</g>
</svg>
