<?xml version="1.0" encoding="utf-8"?>
<!-- Generator: Adobe Illustrator 26.0.0, SVG Export Plug-In . SVG Version: 6.00 Build 0)  -->
<svg version="1.1" id="Calque_1" xmlns="http://www.w3.org/2000/svg" xmlns:xlink="http://www.w3.org/1999/xlink" x="0px" y="0px"
	 viewBox="0 0 141.73 141.73" style="enable-background:new 0 0 141.73 141.73;" xml:space="preserve">
<path d="M115.93,41.44c0,19.68,0,39.35,0,59.03c-0.05,0.16-0.13,0.32-0.15,0.49c-0.77,6.96-6.9,13.91-16.36,13.88
	c-18.97-0.07-37.94-0.02-56.91-0.03c-0.99,0-2-0.03-2.98-0.19c-8.07-1.35-13.55-7.83-13.55-16c-0.01-18.44-0.01-36.89,0-55.33
	c0-9.11,6.9-16.15,16-16.18c19.32-0.05,38.64-0.05,57.96,0c7.56,0.02,13.76,4.97,15.54,12.2C115.66,40.01,115.78,40.73,115.93,41.44
	z M62.52,49.54c-1.46,0-2.93,0.02-4.39-0.01c-0.63-0.01-0.83,0.19-0.9,0.84c-0.13,1.18-0.32,2.38-0.67,3.51
	c-0.79,2.51-1.7,4.98-2.56,7.46c-3.08,8.86-6.15,17.72-9.23,26.58c-0.35,1.01-0.26,1.13,0.77,1.13c2.02,0,4.04-0.02,6.06,0.01
	c0.73,0.01,1.1-0.22,1.32-0.94c0.79-2.57,1.65-5.11,2.46-7.68c0.16-0.52,0.39-0.73,0.97-0.73c4.16,0.03,8.31,0.03,12.47,0
	c0.63-0.01,0.85,0.23,1.03,0.78c0.87,2.6,1.79,5.19,2.66,7.8c0.19,0.56,0.48,0.79,1.07,0.78c2.34-0.03,4.68-0.01,7.02-0.01
	c0.93,0,1.01-0.1,0.71-0.95c-4.46-12.61-8.93-25.23-13.39-37.84c-0.18-0.52-0.45-0.74-1.02-0.73
	C65.45,49.56,63.99,49.54,62.52,49.54z M93.81,74.12c0-4.68-0.01-9.36,0.01-14.04c0-0.73-0.23-0.97-0.96-0.96
	c-2.16,0.03-4.33,0.03-6.5,0c-0.72-0.01-0.97,0.23-0.97,0.96c0.02,9.33,0.02,18.67,0,28c0,0.74,0.25,1.04,1.02,1.03
	c2.11-0.04,4.21-0.05,6.32,0c0.87,0.02,1.09-0.29,1.08-1.11C93.79,83.36,93.81,78.74,93.81,74.12z M94.33,51.2
	c0-2.78-1.84-4.65-4.59-4.65c-2.71,0-4.73,2-4.73,4.68c0,2.82,1.92,4.75,4.72,4.75C92.42,55.97,94.33,53.98,94.33,51.2z"/>
<path d="M67.31,72.07c-3.2,0-6.28,0-9.49,0c1.54-5.19,3.06-10.3,4.57-15.4c0.06-0.01,0.12-0.02,0.17-0.03
	C64.13,61.74,65.7,66.84,67.31,72.07z"/>
</svg>
