<?xml version="1.0" encoding="utf-8"?>
<!-- Generator: Adobe Illustrator 26.0.0, SVG Export Plug-In . SVG Version: 6.00 Build 0)  -->
<svg version="1.1" id="Calque_1" xmlns="http://www.w3.org/2000/svg" xmlns:xlink="http://www.w3.org/1999/xlink" x="0px" y="0px"
	 viewBox="0 0 141.73 141.73" style="enable-background:new 0 0 141.73 141.73;" xml:space="preserve">
<path d="M24.68,105.67c0-21.13,0-42.26,0-63.39c0.05-0.11,0.13-0.21,0.15-0.33c1.46-8.97,8.28-14.8,17.37-14.8
	c20.32-0.01,40.63,0,60.95,0.01c1.03,0,2.07,0.03,3.08,0.2c8.61,1.43,14.47,8.35,14.47,17.08c0.01,19.69,0.01,39.38,0,59.07
	c0,9.73-7.34,17.24-17.09,17.27c-20.63,0.07-41.26,0.06-61.89,0c-8.08-0.02-14.71-5.33-16.59-13.03
	C24.98,107.06,24.83,106.36,24.68,105.67z M86.55,60.67c-1.18,0-2.24-0.04-3.29,0.01c-5.16,0.22-9.74,1.82-13.28,5.76
	c-3.49,3.9-4.6,8.51-4.09,13.65c0.65,6.5,4.4,11.24,10.66,13.02c6.34,1.8,12.49,0.74,18.52-1.51c0.6-0.22,0.63-0.67,0.61-1.21
	c-0.1-2.18-0.22-4.37-0.22-6.55c-0.02-11.56-0.01-23.12-0.01-34.68c0-0.25-0.02-0.5,0-0.75c0.04-0.53-0.2-0.71-0.72-0.7
	c-2.47,0.02-4.94,0.03-7.41,0c-0.64-0.01-0.83,0.25-0.78,0.84c0.03,0.31,0,0.62,0,0.94C86.55,53.17,86.55,56.89,86.55,60.67z
	 M59.57,72.18c0-6.59,0-13.18,0-19.77c0-1.29-0.01-1.29-1.32-1.29c-2.03,0-4.06,0-6.09,0c-1.51,0-1.51,0-1.51,1.48
	c0,12.71,0,25.43,0,38.14c0,0.56,0.02,1.13,0,1.69c-0.03,0.68,0.26,0.93,0.95,0.92c2.25-0.03,4.5-0.01,6.75-0.01
	c1.23,0,1.23-0.01,1.23-1.28C59.57,85.43,59.57,78.8,59.57,72.18z"/>
<path d="M86.55,68.16c0,0.55,0,0.79,0,1.04c0,5.31-0.01,10.62,0.01,15.93c0,0.55-0.02,1.03-0.73,1.02c-1.43-0.01-2.9,0.15-4.3-0.09
	c-3.91-0.65-6.26-3.32-6.55-7.41c-0.1-1.41-0.04-2.9,0.27-4.27c0.75-3.34,4.1-5.96,7.73-6.21C84.12,68.09,85.27,68.16,86.55,68.16z"
	/>
</svg>
