<?xml version="1.0" encoding="utf-8"?>
<!-- Generator: Adobe Illustrator 26.0.0, SVG Export Plug-In . SVG Version: 6.00 Build 0)  -->
<svg version="1.1" id="Calque_1" xmlns="http://www.w3.org/2000/svg" xmlns:xlink="http://www.w3.org/1999/xlink" x="0px" y="0px"
	 viewBox="0 0 141.73 141.73" style="enable-background:new 0 0 141.73 141.73;" xml:space="preserve">
<path d="M71.54,120.36c-0.39,0-0.77,0-1.16,0c-0.17-0.07-0.33-0.17-0.51-0.2c-13.1-2.63-26.2-5.26-39.3-7.86
	c-0.65-0.13-0.83-0.41-0.88-1c-0.51-5.76-1.04-11.53-1.56-17.29c-0.67-7.43-1.33-14.86-2.01-22.28c-0.68-7.43-1.37-14.85-2.05-22.28
	c-0.7-7.62-1.39-15.24-2.08-22.86c-0.15-1.65-0.28-3.3-0.43-5.03c33,0,65.9,0,98.8,0c0,0.39,0,0.77,0,1.16
	c-0.05,0.15-0.14,0.29-0.15,0.44c-0.46,5.02-0.92,10.05-1.37,15.07c-0.67,7.43-1.33,14.85-2,22.28c-0.8,8.83-1.63,17.66-2.43,26.5
	c-0.74,8.1-1.46,16.2-2.17,24.29c-0.05,0.6-0.24,0.87-0.89,0.99c-11.25,2.22-22.49,4.47-33.72,6.73
	C75.58,119.44,73.56,119.92,71.54,120.36z M75.13,38.07c0,12.37,0,24.64,0,37.01c5.2,0,10.33,0,15.51,0c0,0.3,0.01,0.49,0,0.68
	c-0.45,5.06-0.9,10.12-1.4,15.17c-0.03,0.26-0.41,0.63-0.68,0.69c-2.51,0.55-5.03,1.03-7.55,1.54c-1.97,0.4-3.94,0.8-5.86,1.19
	c0,2.84,0,5.55,0,8.32c0.31-0.03,0.53-0.04,0.75-0.08c6.77-1.35,13.54-2.71,20.32-4.04c0.52-0.1,0.66-0.37,0.7-0.84
	c0.15-1.79,0.33-3.58,0.49-5.38c0.56-6.08,1.11-12.16,1.66-18.24c0.21-2.36,0.42-4.72,0.64-7.22c-5.48,0-10.9,0-16.33,0
	c0-6.93,0-13.72,0-20.62c6.09,0,12.12,0,18.21,0c0.25-2.76,0.48-5.43,0.73-8.17C93.19,38.07,84.2,38.07,75.13,38.07z M43.72,83.37
	c0.08,0.88,0.14,1.71,0.22,2.53c0.35,3.91,0.72,7.81,1.06,11.72c0.05,0.55,0.22,0.83,0.82,0.95c5.77,1.13,11.53,2.29,17.29,3.44
	c1.21,0.24,2.43,0.46,3.66,0.69c0-21.64,0-43.13,0-64.62c-2.75,0-5.41,0-8.15,0c0,18.21,0,36.36,0,54.61
	c-1.67-0.32-3.23-0.68-4.81-0.91c-0.92-0.13-1.23-0.53-1.21-1.44c0.03-0.8-0.12-1.6-0.19-2.4c-0.14-1.53-0.3-3.05-0.44-4.58
	C49.18,83.37,46.49,83.37,43.72,83.37z"/>
</svg>
