<?xml version="1.0" encoding="utf-8"?>
<!-- Generator: Adobe Illustrator 26.0.0, SVG Export Plug-In . SVG Version: 6.00 Build 0)  -->
<svg version="1.1" id="Calque_1" xmlns="http://www.w3.org/2000/svg" xmlns:xlink="http://www.w3.org/1999/xlink" x="0px" y="0px"
	 viewBox="0 0 283.46 141.73" style="enable-background:new 0 0 283.46 141.73;" xml:space="preserve">
<style type="text/css">
	.st0{fill:#febe13;}
</style>
<circle class="st0" cx="56.55" cy="66.64" r="29.76"/>
<g>
	<path d="M60.42,89.57c-0.59,0-1.07-0.19-1.43-0.56s-0.54-0.83-0.54-1.38V69.25c0-0.55,0.19-1.01,0.57-1.38
		c0.38-0.37,0.87-0.56,1.46-0.56c0.59,0,1.07,0.19,1.42,0.56c0.35,0.37,0.52,0.83,0.52,1.38v18.38c0,0.55-0.18,1.01-0.54,1.38
		C61.52,89.38,61.03,89.57,60.42,89.57z M74.16,67.15c0.51,0,0.93,0.21,1.26,0.62s0.49,0.83,0.49,1.26c0,0.45-0.19,0.86-0.57,1.24
		L62.01,83.02l-0.16-4.55L72.6,67.88C73.09,67.39,73.61,67.15,74.16,67.15z M73.78,89.57c-0.59,0-1.07-0.24-1.43-0.73L65,79.17
		l2.89-2.96l7.6,10.05c0.3,0.4,0.45,0.84,0.45,1.3c0,0.59-0.22,1.08-0.67,1.45S74.33,89.57,73.78,89.57z"/>
	<path d="M86.31,89.89c-1.8,0-3.37-0.38-4.69-1.13c-1.33-0.75-2.34-1.78-3.05-3.07s-1.07-2.76-1.07-4.39c0-1.91,0.39-3.53,1.16-4.88
		c0.77-1.35,1.79-2.38,3.04-3.1c1.25-0.72,2.58-1.08,3.98-1.08c1.08,0,2.1,0.22,3.07,0.67s1.82,1.05,2.56,1.83
		c0.74,0.77,1.33,1.67,1.76,2.69c0.43,1.02,0.65,2.1,0.65,3.24c-0.02,0.51-0.22,0.92-0.6,1.24c-0.38,0.32-0.83,0.48-1.34,0.48H79.63
		l-0.95-3.18h11.67l-0.7,0.64v-0.86c-0.04-0.61-0.26-1.17-0.65-1.65c-0.39-0.49-0.88-0.88-1.46-1.16c-0.58-0.29-1.2-0.43-1.86-0.43
		c-0.64,0-1.23,0.08-1.78,0.25c-0.55,0.17-1.03,0.46-1.43,0.86c-0.4,0.4-0.72,0.94-0.95,1.62c-0.23,0.68-0.35,1.54-0.35,2.58
		c0,1.14,0.24,2.12,0.72,2.91s1.09,1.4,1.85,1.81c0.75,0.41,1.55,0.62,2.4,0.62c0.78,0,1.41-0.06,1.88-0.19
		c0.47-0.13,0.84-0.28,1.13-0.46c0.29-0.18,0.55-0.33,0.78-0.46c0.38-0.19,0.74-0.29,1.08-0.29c0.47,0,0.85,0.16,1.16,0.48
		c0.31,0.32,0.46,0.69,0.46,1.11c0,0.57-0.3,1.09-0.89,1.56c-0.55,0.47-1.33,0.88-2.32,1.22C88.4,89.71,87.37,89.89,86.31,89.89z"/>
	<path d="M105.07,89.89c-1.8,0-3.37-0.38-4.69-1.13c-1.33-0.75-2.34-1.78-3.05-3.07c-0.71-1.29-1.07-2.76-1.07-4.39
		c0-1.91,0.39-3.53,1.16-4.88c0.77-1.35,1.79-2.38,3.04-3.1c1.25-0.72,2.58-1.08,3.97-1.08c1.08,0,2.1,0.22,3.07,0.67
		s1.82,1.05,2.56,1.83c0.74,0.77,1.33,1.67,1.76,2.69c0.43,1.02,0.65,2.1,0.65,3.24c-0.02,0.51-0.22,0.92-0.6,1.24
		c-0.38,0.32-0.83,0.48-1.34,0.48H98.39l-0.95-3.18h11.67l-0.7,0.64v-0.86c-0.04-0.61-0.26-1.17-0.65-1.65
		c-0.39-0.49-0.88-0.88-1.46-1.16c-0.58-0.29-1.2-0.43-1.86-0.43c-0.64,0-1.23,0.08-1.78,0.25c-0.55,0.17-1.03,0.46-1.43,0.86
		c-0.4,0.4-0.72,0.94-0.95,1.62c-0.23,0.68-0.35,1.54-0.35,2.58c0,1.14,0.24,2.12,0.72,2.91c0.48,0.79,1.09,1.4,1.84,1.81
		c0.75,0.41,1.55,0.62,2.4,0.62c0.78,0,1.41-0.06,1.88-0.19c0.47-0.13,0.84-0.28,1.13-0.46c0.29-0.18,0.55-0.33,0.78-0.46
		c0.38-0.19,0.74-0.29,1.08-0.29c0.47,0,0.85,0.16,1.16,0.48c0.31,0.32,0.46,0.69,0.46,1.11c0,0.57-0.3,1.09-0.89,1.56
		c-0.55,0.47-1.33,0.88-2.32,1.22C107.16,89.71,106.13,89.89,105.07,89.89z"/>
	<path d="M124.63,72.24c1.48,0,2.81,0.38,3.99,1.13c1.18,0.75,2.11,1.79,2.8,3.1c0.69,1.32,1.03,2.84,1.03,4.58s-0.35,3.27-1.03,4.6
		c-0.69,1.33-1.61,2.36-2.77,3.12c-1.16,0.75-2.45,1.13-3.9,1.13c-0.85,0-1.64-0.14-2.38-0.41c-0.74-0.28-1.39-0.62-1.96-1.05
		c-0.56-0.42-1-0.85-1.3-1.29c-0.31-0.43-0.46-0.8-0.46-1.1l0.99-0.41v8.36c0,0.55-0.18,1.01-0.54,1.38
		c-0.36,0.37-0.82,0.56-1.37,0.56c-0.55,0-1.01-0.18-1.37-0.54c-0.36-0.36-0.54-0.83-0.54-1.4V74.5c0-0.55,0.18-1.01,0.54-1.38
		c0.36-0.37,0.82-0.56,1.37-0.56c0.55,0,1.01,0.19,1.37,0.56c0.36,0.37,0.54,0.83,0.54,1.38v1.56l-0.54-0.29
		c0-0.28,0.15-0.61,0.45-1c0.3-0.39,0.7-0.78,1.21-1.18c0.51-0.39,1.1-0.72,1.76-0.97C123.18,72.36,123.89,72.24,124.63,72.24z
		 M124.15,75.74c-0.93,0-1.75,0.23-2.45,0.7c-0.7,0.47-1.25,1.1-1.64,1.89c-0.39,0.79-0.59,1.7-0.59,2.72c0,1,0.2,1.9,0.59,2.72
		c0.39,0.82,0.94,1.46,1.64,1.92c0.7,0.47,1.52,0.7,2.45,0.7c0.93,0,1.74-0.23,2.43-0.7c0.69-0.47,1.23-1.11,1.62-1.92
		c0.39-0.82,0.59-1.72,0.59-2.72c0-1.02-0.2-1.92-0.59-2.72c-0.39-0.8-0.93-1.43-1.62-1.89C125.9,75.97,125.09,75.74,124.15,75.74z"
		/>
	<path d="M146.35,70.49c-0.72,0-1.23-0.12-1.53-0.35c-0.3-0.23-0.45-0.65-0.45-1.24v-0.6c0-0.61,0.16-1.03,0.49-1.26
		c0.33-0.22,0.83-0.33,1.51-0.33c0.74,0,1.26,0.12,1.56,0.35c0.3,0.23,0.45,0.65,0.45,1.24v0.6c0,0.62-0.16,1.03-0.48,1.26
		C147.59,70.38,147.07,70.49,146.35,70.49z M148.29,87.63c0,0.55-0.18,1.01-0.54,1.38s-0.82,0.56-1.37,0.56
		c-0.55,0-1.01-0.19-1.37-0.56c-0.36-0.37-0.54-0.83-0.54-1.38V74.5c0-0.55,0.18-1.01,0.54-1.38c0.36-0.37,0.82-0.56,1.37-0.56
		c0.55,0,1.01,0.19,1.37,0.56c0.36,0.37,0.54,0.83,0.54,1.38V87.63z"/>
	<path d="M161.3,72.24c1.57,0,2.76,0.33,3.58,0.99c0.82,0.66,1.38,1.53,1.69,2.62c0.31,1.09,0.46,2.31,0.46,3.64v8.14
		c0,0.55-0.18,1.01-0.54,1.38c-0.36,0.37-0.82,0.56-1.37,0.56s-1.01-0.19-1.37-0.56c-0.36-0.37-0.54-0.83-0.54-1.38v-8.14
		c0-0.7-0.09-1.33-0.27-1.89c-0.18-0.56-0.5-1.01-0.97-1.35c-0.47-0.34-1.13-0.51-2-0.51c-0.85,0-1.56,0.17-2.15,0.51
		c-0.58,0.34-1.03,0.79-1.34,1.35s-0.46,1.19-0.46,1.89v8.14c0,0.55-0.18,1.01-0.54,1.38s-0.82,0.56-1.37,0.56
		c-0.55,0-1.01-0.19-1.37-0.56c-0.36-0.37-0.54-0.83-0.54-1.38V74.5c0-0.55,0.18-1.01,0.54-1.38c0.36-0.37,0.82-0.56,1.37-0.56
		c0.55,0,1.01,0.19,1.37,0.56c0.36,0.37,0.54,0.83,0.54,1.38v1.37l-0.48-0.1c0.19-0.36,0.47-0.75,0.83-1.16
		c0.36-0.41,0.78-0.8,1.27-1.16c0.49-0.36,1.04-0.65,1.65-0.87S160.58,72.24,161.3,72.24z"/>
	<path d="M180.25,72.87h7.54c0.51,0,0.93,0.17,1.27,0.51c0.34,0.34,0.51,0.76,0.51,1.27c0,0.49-0.17,0.9-0.51,1.22
		c-0.34,0.33-0.76,0.49-1.27,0.49h-7.54c-0.51,0-0.93-0.17-1.27-0.51c-0.34-0.34-0.51-0.76-0.51-1.27c0-0.49,0.17-0.9,0.51-1.22
		C179.32,73.04,179.75,72.87,180.25,72.87z M183.66,68.9c0.55,0,1,0.19,1.35,0.56c0.35,0.37,0.52,0.83,0.52,1.38v14.15
		c0,0.3,0.06,0.54,0.18,0.73c0.12,0.19,0.27,0.33,0.48,0.41c0.2,0.08,0.42,0.13,0.65,0.13c0.25,0,0.49-0.05,0.7-0.14
		c0.21-0.09,0.46-0.14,0.73-0.14c0.3,0,0.57,0.14,0.81,0.41c0.24,0.28,0.37,0.66,0.37,1.15c0,0.59-0.32,1.08-0.97,1.46
		c-0.65,0.38-1.34,0.57-2.08,0.57c-0.45,0-0.94-0.04-1.48-0.11c-0.54-0.07-1.05-0.25-1.53-0.54c-0.48-0.29-0.87-0.73-1.19-1.32
		s-0.48-1.41-0.48-2.45V70.84c0-0.55,0.19-1.01,0.56-1.38C182.65,69.08,183.11,68.9,183.66,68.9z"/>
	<path d="M209.42,81.08c0,1.74-0.39,3.27-1.16,4.6c-0.77,1.33-1.81,2.36-3.12,3.1s-2.76,1.11-4.37,1.11s-3.07-0.37-4.37-1.11
		s-2.34-1.78-3.12-3.1c-0.77-1.32-1.16-2.86-1.16-4.6c0-1.74,0.39-3.27,1.16-4.59c0.77-1.33,1.81-2.36,3.12-3.12
		c1.3-0.75,2.76-1.13,4.37-1.13s3.07,0.38,4.37,1.13c1.3,0.75,2.34,1.79,3.12,3.12C209.03,77.81,209.42,79.34,209.42,81.08z
		 M205.6,81.08c0-1.08-0.22-2.02-0.65-2.81c-0.44-0.79-1.02-1.42-1.75-1.86s-1.54-0.67-2.43-0.67s-1.7,0.22-2.43,0.67
		s-1.32,1.07-1.75,1.86s-0.65,1.73-0.65,2.81c0,1.06,0.22,1.99,0.65,2.78s1.02,1.42,1.75,1.86s1.54,0.67,2.43,0.67
		s1.7-0.22,2.43-0.67s1.31-1.07,1.75-1.86C205.38,83.07,205.6,82.14,205.6,81.08z"/>
	<path d="M225.38,72.56c0.55,0,1.01,0.19,1.37,0.56c0.36,0.37,0.54,0.83,0.54,1.38v8.08c0,2.25-0.63,4.03-1.88,5.34
		c-1.25,1.32-3.05,1.97-5.41,1.97s-4.15-0.66-5.39-1.97c-1.24-1.31-1.86-3.09-1.86-5.34V74.5c0-0.55,0.18-1.01,0.54-1.38
		c0.36-0.37,0.82-0.56,1.37-0.56c0.55,0,1.01,0.19,1.37,0.56c0.36,0.37,0.54,0.83,0.54,1.38v8.08c0,1.29,0.29,2.25,0.86,2.88
		c0.57,0.63,1.43,0.94,2.58,0.94c1.17,0,2.04-0.31,2.61-0.94c0.57-0.62,0.86-1.58,0.86-2.88V74.5c0-0.55,0.18-1.01,0.54-1.38
		C224.38,72.74,224.83,72.56,225.38,72.56z"/>
	<path d="M239,72.24c1.21,0,2.26,0.13,3.16,0.38c0.9,0.25,1.6,0.61,2.1,1.07c0.5,0.46,0.75,1,0.75,1.64c0,0.42-0.13,0.82-0.38,1.19
		c-0.25,0.37-0.62,0.56-1.11,0.56c-0.34,0-0.62-0.05-0.84-0.14c-0.22-0.1-0.42-0.22-0.59-0.37c-0.17-0.15-0.37-0.29-0.6-0.41
		c-0.21-0.13-0.54-0.23-0.97-0.3c-0.43-0.07-0.76-0.11-0.97-0.11c-1.08,0-2,0.23-2.75,0.7c-0.75,0.47-1.33,1.1-1.73,1.89
		c-0.4,0.79-0.6,1.71-0.6,2.75c0,1.02,0.21,1.92,0.62,2.72c0.41,0.79,0.99,1.43,1.72,1.89c0.73,0.47,1.58,0.7,2.53,0.7
		c0.53,0,0.99-0.03,1.37-0.09c0.38-0.06,0.7-0.16,0.95-0.29c0.3-0.17,0.56-0.35,0.79-0.54c0.23-0.19,0.58-0.29,1.05-0.29
		c0.55,0,0.97,0.17,1.27,0.52c0.3,0.35,0.45,0.78,0.45,1.29c0,0.53-0.3,1.01-0.89,1.45c-0.59,0.43-1.37,0.78-2.34,1.05
		c-0.96,0.26-2.01,0.4-3.13,0.4c-1.67,0-3.13-0.39-4.36-1.16c-1.23-0.77-2.18-1.83-2.85-3.17c-0.67-1.33-1-2.83-1-4.48
		c0-1.74,0.35-3.27,1.07-4.59c0.71-1.33,1.7-2.36,2.96-3.12C235.92,72.61,237.36,72.24,239,72.24z"/>
	<path d="M256.9,72.24c1.53,0,2.69,0.33,3.48,0.99c0.8,0.66,1.34,1.53,1.64,2.62c0.3,1.09,0.45,2.31,0.45,3.64v8.14
		c0,0.55-0.18,1.01-0.54,1.38c-0.36,0.37-0.82,0.56-1.37,0.56c-0.55,0-1.01-0.19-1.37-0.56s-0.54-0.83-0.54-1.38v-8.14
		c0-0.7-0.08-1.33-0.25-1.89c-0.17-0.56-0.48-1.01-0.92-1.35c-0.45-0.34-1.08-0.51-1.91-0.51c-0.81,0-1.49,0.17-2.07,0.51
		c-0.57,0.34-1,0.79-1.29,1.35s-0.43,1.19-0.43,1.89v8.14c0,0.55-0.18,1.01-0.54,1.38s-0.82,0.56-1.37,0.56
		c-0.55,0-1.01-0.19-1.37-0.56c-0.36-0.37-0.54-0.83-0.54-1.38V67.98c0-0.55,0.18-1.01,0.54-1.38c0.36-0.37,0.82-0.56,1.37-0.56
		c0.55,0,1.01,0.19,1.37,0.56c0.36,0.37,0.54,0.83,0.54,1.38v7.89l-0.48-0.1c0.19-0.36,0.46-0.75,0.8-1.16
		c0.34-0.41,0.75-0.8,1.24-1.16c0.49-0.36,1.03-0.65,1.62-0.87C255.56,72.35,256.2,72.24,256.9,72.24z"/>
</g>
</svg>
