<?xml version="1.0" encoding="utf-8"?>
<!-- Generator: Adobe Illustrator 26.0.0, SVG Export Plug-In . SVG Version: 6.00 Build 0)  -->
<svg version="1.1" id="Calque_1" xmlns="http://www.w3.org/2000/svg" xmlns:xlink="http://www.w3.org/1999/xlink" x="0px" y="0px"
	 viewBox="0 0 141.73 141.73" style="enable-background:new 0 0 141.73 141.73;" xml:space="preserve">
<style type="text/css">
	.st0{fill:#FFFFFF;}
	.st1{fill:#414040;}
</style>
<circle class="st0" cx="72.96" cy="69.36" r="65.57"/>
<g>
	<g>
		<path class="st1" d="M76.91,63.49c1.05-1.18,1.91-2.38,2.99-3.39c3.31-3.12,7.23-4.7,11.81-4.66c2.52,0.02,5,0.2,7.43,0.9
			c5.55,1.6,8.77,5.42,10.31,10.84c1.15,4.06,1.37,8.24,1.37,12.42c0.02,8.83-0.03,17.66-0.01,26.49c0,0.83-0.23,1.04-1.04,1.04
			c-4.55-0.04-9.1-0.04-13.64,0c-0.8,0.01-0.97-0.24-0.97-1c0.03-8.4,0.03-16.8,0-25.2c-0.01-2.11-0.14-4.21-0.73-6.26
			c-1.09-3.77-3.79-5.69-7.74-5.48c-5.39,0.28-8.2,2.96-8.89,8.44c-0.16,1.31-0.24,2.62-0.24,3.94c0.01,8.17-0.01,16.34,0.02,24.51
			c0,0.81-0.2,1.05-1.03,1.05c-4.58-0.04-9.16-0.04-13.74,0c-0.73,0.01-0.95-0.19-0.95-0.94c0.02-16.17,0.02-32.35,0-48.52
			c0-0.8,0.26-0.99,1.02-0.98c4.35,0.03,8.7,0.04,13.05,0c0.8-0.01,1.01,0.25,0.99,1.01C76.88,59.62,76.91,61.56,76.91,63.49z"/>
		<path class="st1" d="M51.99,81.98c0,8-0.01,16,0.02,24.01c0,0.89-0.22,1.16-1.14,1.15c-4.55-0.05-9.09-0.04-13.64-0.01
			c-0.73,0.01-0.95-0.18-0.95-0.93c0.02-16.2,0.02-32.4,0-48.6c0-0.67,0.16-0.91,0.87-0.91c4.61,0.03,9.23,0.04,13.84-0.01
			c0.89-0.01,1.01,0.34,1,1.09C51.99,65.84,51.99,73.91,51.99,81.98z"/>
		<path class="st1" d="M53.25,40.63c0.01,5.02-4.07,9.12-9.09,9.12c-4.95,0-9.06-4.09-9.08-9.04c-0.02-5,4.09-9.12,9.1-9.11
			C49.15,31.6,53.24,35.68,53.25,40.63z"/>
	</g>
</g>
</svg>
