<svg id="Calque_1" data-name="Calque 1" xmlns="http://www.w3.org/2000/svg" viewBox="0 0 26.83 18.27"><defs><style>.cls-1{fill:#febe13;}.cls-2{fill:#1d1d1b;}</style></defs><ellipse class="cls-1" cx="8.76" cy="1.04" rx="1.07" ry="1.04"/><path class="cls-2" d="M99.08,34.06A4.72,4.72,0,1,0,104,38.78,4.8,4.8,0,0,0,99.08,34.06Zm0,8.27a3.55,3.55,0,1,1,3.67-3.55A3.61,3.61,0,0,1,99.08,42.33Z" transform="translate(-94.2 -31.29)"/><path class="cls-2" d="M104,39a3.61,3.61,0,0,1,3.67-3.54,3.76,3.76,0,0,1,2.6,1A3.48,3.48,0,0,1,111.3,39v4.69a.6.6,0,0,0,.61.59h0a.59.59,0,0,0,.6-.59V38.86a4.67,4.67,0,0,0-4.76-4.59h-.24a4.67,4.67,0,0,0-4.76,4.59Z" transform="translate(-94.2 -31.29)"/><path class="cls-2" d="M112.51,38.85a3.6,3.6,0,0,1,3.63-3.56,3.74,3.74,0,0,1,2.6,1,3.47,3.47,0,0,1,1.07,2.5v4.69a.61.61,0,0,0,.61.59h0a.61.61,0,0,0,.61-.59V38.67a4.68,4.68,0,0,0-4.76-4.59H116a4.64,4.64,0,0,0-4.72,4.59Z" transform="translate(-94.2 -31.29)"/><path class="cls-2" d="M102.75,44.84a3.68,3.68,0,0,1-7.3.5.6.6,0,0,0-.6-.5h0a.6.6,0,0,0-.61.66,4.9,4.9,0,0,0,9.72-.66Z" transform="translate(-94.2 -31.29)"/><rect class="cls-2" x="8.55" y="7.71" width="1.21" height="5.83"/><rect class="cls-2" x="8.56" y="13.37" width="1.19" height="0.48"/></svg>