<?xml version="1.0" encoding="utf-8"?>
<!-- Generator: Adobe Illustrator 26.0.0, SVG Export Plug-In . SVG Version: 6.00 Build 0)  -->
<svg version="1.1" id="Calque_1" xmlns="http://www.w3.org/2000/svg" xmlns:xlink="http://www.w3.org/1999/xlink" x="0px" y="0px"
	 viewBox="0 0 120 60" style="enable-background:new 0 0 120 60;" xml:space="preserve">
<g transform="matrix(.217946 0 0 .217946 4.120542 14.085548)">
	<path d="M471.05,51.6c-1.24,0-2.45,0.26-3.53,0.86l-33.89,19.57c-2.19,1.26-3.53,3.65-3.53,6.19v39.07c0,2.54,1.33,4.92,3.53,6.19
		l8.85,5.1c4.3,2.12,5.89,2.09,7.84,2.09c6.37,0,10-3.86,10-10.58V81.54c0-0.54-0.47-0.93-1.01-0.93h-4.24
		c-0.54,0-1.01,0.4-1.01,0.93v38.56c0,2.98-3.1,5.97-8.13,3.45l-9.2-5.4c-0.33-0.18-0.58-0.5-0.58-0.86V78.23
		c0-0.37,0.25-0.75,0.58-0.93l33.82-19.5c0.32-0.18,0.69-0.18,1.01,0l33.82,19.5c0.32,0.19,0.58,0.55,0.58,0.93v39.07
		c0,0.37-0.19,0.75-0.5,0.93l-33.89,19.5c-0.3,0.17-0.7,0.17-1.01,0l-8.71-5.18c-0.26-0.15-0.61-0.14-0.86,0
		c-2.4,1.36-2.86,1.52-5.11,2.3c-0.55,0.19-1.4,0.49,0.29,1.44l11.37,6.7c1.08,0.63,2.29,0.93,3.53,0.93c1.26,0,2.44-0.3,3.53-0.93
		l33.89-19.5c2.19-1.28,3.53-3.65,3.53-6.19V78.24c0-2.54-1.33-4.92-3.53-6.19l-33.89-19.57c-1.06-0.61-2.28-0.86-3.53-0.86
		L471.05,51.6z M480.12,79.52c-9.65,0-15.4,4.11-15.4,10.94c0,7.4,5.7,9.44,14.97,10.36c11.08,1.08,11.94,2.71,11.94,4.89
		c0,3.78-3.02,5.4-10.14,5.4c-8.96,0-10.92-2.24-11.58-6.7c-0.08-0.48-0.45-0.86-0.93-0.86h-4.4c-0.55,0.01-0.99,0.46-1.01,1.01
		c0,5.7,3.1,12.45,17.92,12.45c10.72,0,16.91-4.2,16.91-11.58c0-7.3-5-9.27-15.4-10.65c-10.5-1.4-11.51-2.07-11.51-4.53
		c0-2.03,0.85-4.75,8.63-4.75c6.95,0,9.52,1.5,10.58,6.19c0.09,0.44,0.48,0.8,0.93,0.8h4.4c0.27,0,0.53-0.17,0.72-0.36
		c0.18-0.21,0.31-0.44,0.29-0.72C496.35,83.31,490.96,79.51,480.12,79.52L480.12,79.52z"/>
	<path d="M271.82,0.38c-0.38,0-0.75,0.1-1.08,0.29c-0.67,0.39-1.08,1.1-1.08,1.87v55.04c0,0.54-0.25,1.02-0.72,1.29
		c-0.47,0.27-1.04,0.27-1.51,0l-8.99-5.18c-1.34-0.77-2.98-0.77-4.32,0l-35.9,20.72c-1.34,0.77-2.16,2.26-2.16,3.81v41.44
		c0,1.54,0.82,2.97,2.16,3.74l35.9,20.72c1.33,0.77,2.98,0.77,4.32,0l35.9-20.72c1.34-0.77,2.16-2.2,2.16-3.74V16.36
		c0-1.57-0.86-3.05-2.23-3.81L272.9,0.6C272.56,0.41,272.19,0.38,271.82,0.38L271.82,0.38z M40.86,52.11
		c-0.69,0.03-1.33,0.15-1.94,0.5L3.02,73.34c-1.34,0.77-2.16,2.2-2.16,3.74l0.07,55.62c0,0.77,0.4,1.49,1.08,1.87
		c0.67,0.4,1.49,0.4,2.16,0l21.3-12.23c1.35-0.8,2.23-2.2,2.23-3.74V92.62c0-1.55,0.82-2.97,2.16-3.74l9.07-5.25
		c0.66-0.38,1.4-0.58,2.16-0.58c0.76,0,1.5,0.19,2.16,0.58l9.06,5.25c1.34,0.77,2.16,2.19,2.16,3.74v25.97
		c0,1.55,0.9,2.95,2.23,3.74l21.3,12.23c0.67,0.4,1.5,0.4,2.16,0c0.66-0.38,1.08-1.1,1.08-1.87l0.07-55.62
		c0.01-1.55-0.82-2.97-2.16-3.74l-35.9-20.72c-0.61-0.36-1.25-0.48-1.94-0.5L40.86,52.11L40.86,52.11z M363.48,52.62
		c-0.76,0-1.5,0.2-2.16,0.58l-35.9,20.72c-1.34,0.78-2.16,2.19-2.16,3.74v41.44c0,1.56,0.88,2.97,2.23,3.74l35.61,20.3
		c1.32,0.75,2.92,0.81,4.24,0.07l21.58-12.02c0.68-0.38,1.15-1.09,1.15-1.87s-0.4-1.48-1.08-1.87l-36.12-20.72
		c-0.68-0.39-1.15-1.17-1.15-1.94V91.83c0-0.77,0.48-1.48,1.15-1.87l11.22-6.48c0.67-0.39,1.49-0.39,2.16,0l11.23,6.48
		c0.67,0.38,1.08,1.1,1.08,1.87v10.22c0,0.77,0.41,1.49,1.08,1.87c0.67,0.39,1.49,0.39,2.16,0l21.51-12.52
		c1.33-0.78,2.16-2.2,2.16-3.74v-10c0-1.54-0.82-2.97-2.16-3.74L365.64,53.2C364.99,52.82,364.24,52.62,363.48,52.62L363.48,52.62z
		 M256.13,83.56c0.2,0,0.4,0.05,0.58,0.14l12.3,7.12c0.33,0.19,0.58,0.55,0.58,0.93v14.25c0,0.39-0.24,0.74-0.58,0.93l-12.3,7.12
		c-0.33,0.19-0.74,0.19-1.08,0l-12.3-7.12c-0.34-0.19-0.58-0.55-0.58-0.93V91.76c0-0.39,0.24-0.74,0.58-0.93l12.3-7.12
		C255.8,83.6,255.95,83.56,256.13,83.56L256.13,83.56L256.13,83.56z"/>
	<path d="M148.71,52.4c-0.76,0-1.5,0.2-2.16,0.58l-35.9,20.65c-1.34,0.77-2.16,2.26-2.16,3.81v41.44c0,1.54,0.82,2.97,2.16,3.74
		l35.9,20.72c1.33,0.77,2.98,0.77,4.32,0l35.9-20.72c1.34-0.77,2.16-2.2,2.16-3.74V77.44c0-1.55-0.82-3.04-2.16-3.81l-35.9-20.65
		C150.21,52.6,149.47,52.4,148.71,52.4L148.71,52.4z M363.41,89.38c-0.14,0-0.3,0-0.43,0.07l-6.91,4.03
		c-0.26,0.15-0.43,0.42-0.43,0.72v7.92c0,0.3,0.17,0.57,0.43,0.72l6.91,3.96c0.24,0.15,0.55,0.15,0.79,0l6.91-3.96
		c0.26-0.15,0.43-0.42,0.43-0.72V94.2c0-0.3-0.17-0.57-0.43-0.72l-6.91-4.03C363.64,89.38,363.56,89.38,363.41,89.38L363.41,89.38z"
		/>
</g>
</svg>
