<?xml version="1.0" encoding="utf-8"?>
<!-- Generator: Adobe Illustrator 26.0.0, SVG Export Plug-In . SVG Version: 6.00 Build 0)  -->
<svg version="1.1" id="Calque_1" xmlns="http://www.w3.org/2000/svg" xmlns:xlink="http://www.w3.org/1999/xlink" x="0px" y="0px"
	 viewBox="0 0 141.73 141.73" style="enable-background:new 0 0 141.73 141.73;" xml:space="preserve">
<path d="M119,40.39c0,20.96,0,41.92,0,62.88c-0.05,0.17-0.14,0.35-0.16,0.52c-0.82,7.41-7.35,14.82-17.43,14.78
	c-20.21-0.08-40.41-0.02-60.62-0.03c-1.06,0-2.13-0.03-3.17-0.2c-8.59-1.44-14.43-8.34-14.43-17.05c-0.01-19.65-0.01-39.29,0-58.94
	c0-9.7,7.35-17.2,17.05-17.23c20.58-0.06,41.16-0.05,61.74,0c8.05,0.02,14.65,5.29,16.55,13C118.71,38.87,118.84,39.63,119,40.39z
	 M53.41,77.82c0.79,0,1.44,0.03,2.09,0c2.33-0.12,4.69-0.08,6.99-0.41c7.05-1.03,12.49-5.8,12.42-14.13
	c-0.05-5.79-2.52-10.12-7.85-12.63c-2.02-0.95-4.18-1.57-6.4-1.6c-5.08-0.06-10.16,0.05-15.24,0.08c-0.71,0-0.69,0.45-0.69,0.94
	c0,13.38,0.01,26.75-0.01,40.13c0,0.74,0.26,0.97,0.98,0.96c2.21-0.03,4.43-0.04,6.64,0c0.83,0.02,1.08-0.28,1.07-1.08
	c-0.03-3.68-0.01-7.36-0.01-11.04C53.41,78.66,53.41,78.29,53.41,77.82z M79.31,81.98c-0.05,0.49-0.12,0.81-0.12,1.14
	c-0.01,1.93,0.03,3.87-0.02,5.8c-0.02,0.83,0.31,1.24,1.05,1.53c3.32,1.29,6.76,1.65,10.28,1.49c2.16-0.09,4.28-0.47,6.25-1.41
	c3.28-1.57,5.27-4.11,5.6-7.8c0.35-3.88-1.23-6.8-4.64-8.66c-1.63-0.89-3.37-1.6-5.05-2.41c-1.4-0.67-2.81-1.32-4.16-2.08
	c-0.66-0.38-1.07-1.06-0.87-1.91c0.2-0.85,0.77-1.35,1.61-1.48c0.8-0.13,1.6-0.28,2.4-0.26c2.76,0.07,5.45,0.51,7.96,1.74
	c0.83,0.41,1.13,0.19,1.14-0.76c0.01-1.9-0.01-3.8,0.01-5.7c0.01-0.73-0.28-1.13-0.99-1.36c-3.07-0.99-6.23-1.17-9.42-1.02
	c-2.14,0.1-4.18,0.6-6.09,1.62c-5.98,3.18-7.11,11.91-0.66,15.89c1.92,1.18,4.07,1.99,6.1,3c1.11,0.55,2.3,1.02,3.26,1.76
	c1.31,1.01,0.94,2.62-0.63,3.2c-0.35,0.13-0.72,0.22-1.09,0.26c-3.8,0.48-7.36-0.32-10.77-1.98C80.14,82.41,79.8,82.23,79.31,81.98z
	"/>
<path d="M53.52,56.82c2.95-0.05,5.89-0.43,8.71,0.64c2.45,0.93,3.81,2.75,3.98,5.37c0.18,2.83-0.74,5.16-3.49,6.32
	c-1.3,0.55-2.73,0.9-4.13,1.05c-1.65,0.18-3.34,0.04-5.07,0.04C53.52,65.74,53.52,61.33,53.52,56.82z"/>
</svg>
