<?xml version="1.0" encoding="utf-8"?>
<!-- Generator: Adobe Illustrator 26.0.0, SVG Export Plug-In . SVG Version: 6.00 Build 0)  -->
<svg version="1.1" id="Calque_1" xmlns="http://www.w3.org/2000/svg" xmlns:xlink="http://www.w3.org/1999/xlink" x="0px" y="0px"
	 viewBox="0 0 141.73 141.73" style="enable-background:new 0 0 141.73 141.73;" xml:space="preserve">
<style type="text/css">
	.st0{fill:#FFFFFF;}
</style>
<path d="M9.84,68.84c0.59-3.22,1.69-6.24,3.59-8.95c3.28-4.68,7.67-8.08,12.58-10.86c8.13-4.6,16.92-7.27,26.09-8.76
	c16.99-2.77,33.8-2.04,50.3,3.12c7.66,2.39,14.84,5.78,20.9,11.17c3.77,3.35,6.73,7.27,7.89,12.3c1.32,5.68-0.21,10.75-3.57,15.34
	c-4.05,5.52-9.57,9.17-15.63,12.11c-8.53,4.14-17.61,6.4-26.97,7.59c-7.81,0.99-15.64,1.17-23.49,0.51
	c-12.51-1.06-24.56-3.79-35.62-10c-5.17-2.91-9.73-6.53-13-11.6c-1.61-2.5-2.51-5.26-3.07-8.15C9.84,71.38,9.84,70.11,9.84,68.84z
	 M38.8,81.44c2.22,0,4.32,0.04,6.41-0.01c4.98-0.1,9.2-1.81,12.32-5.85c0.3-0.39,0.6-0.77,1.08-1.4c-0.21,1.13-0.35,1.94-0.51,2.76
	c-0.16,0.86-0.34,1.71-0.49,2.57c-0.24,1.37,0.21,1.94,1.59,1.95c1.98,0.02,3.96,0.01,5.95,0c1.48,0,1.75-0.24,2.04-1.72
	c1.02-5.25,2.06-10.49,3.05-15.74c0.13-0.69,0.38-0.93,1.07-0.9c1.11,0.05,2.22,0.01,3.33,0.01c3.07,0.01,3.24,0.24,2.64,3.3
	c-0.86,4.39-1.7,8.78-2.54,13.18c-0.24,1.28,0.25,1.85,1.56,1.88c0.51,0.01,1.03,0,1.55,0c1.92,0,3.84,0,5.86,0
	c-0.44,2.22-0.85,4.28-1.24,6.34c-0.31,1.66,0.14,2.2,1.81,2.21c1.74,0.01,3.49,0,5.23,0c2.15,0,2.26-0.11,2.67-2.28
	c0.39-2.08,0.82-4.16,1.24-6.29c2.22,0,4.32,0.05,6.42-0.01c4.08-0.12,7.79-1.21,10.8-4.18c3.26-3.21,4.81-7.11,4.84-11.62
	c0.03-4.97-2.62-8.48-7.4-9.76c-1.25-0.34-2.57-0.53-3.87-0.55c-4.64-0.07-9.27-0.02-13.91-0.05c-1.06-0.01-1.6,0.43-1.78,1.47
	c-0.27,1.56-0.61,3.11-0.92,4.67c-0.82-3.71-3.45-5.21-6.81-5.79c-1.47-0.25-2.99-0.27-4.5-0.32c-1.41-0.05-2.83-0.01-4.32-0.01
	c0.43-2.27,0.84-4.4,1.24-6.54c0.27-1.42-0.2-2-1.65-2.01c-1.98-0.02-3.96,0.04-5.95-0.02c-1.17-0.03-1.75,0.47-1.95,1.59
	c-0.63,3.39-1.29,6.77-1.95,10.15c-0.29,1.48-0.6,2.96-0.95,4.73c-1.21-3.63-2.74-5.62-5.54-6.66c-1.72-0.64-3.59-1.1-5.41-1.16
	c-4.71-0.16-9.43-0.05-14.15-0.08c-1.09-0.01-1.56,0.52-1.75,1.52c-2.01,10.42-4.03,20.83-6.05,31.24
	c-0.26,1.35,0.22,1.97,1.57,1.98c2.02,0.02,4.04-0.04,6.06,0.02c1.23,0.04,1.79-0.49,1.99-1.68C37.85,86.09,38.33,83.85,38.8,81.44z
	"/>
<path class="st0" d="M38.8,81.44c-0.47,2.41-0.95,4.65-1.34,6.91c-0.2,1.19-0.76,1.71-1.99,1.68c-2.02-0.06-4.04,0-6.06-0.02
	c-1.35-0.01-1.83-0.63-1.57-1.98c2.02-10.41,4.04-20.83,6.05-31.24c0.19-1,0.66-1.52,1.75-1.52c4.72,0.03,9.44-0.08,14.15,0.08
	c1.82,0.06,3.69,0.52,5.41,1.16c2.8,1.05,4.34,3.03,5.54,6.66c0.36-1.77,0.67-3.25,0.95-4.73c0.66-3.38,1.32-6.76,1.95-10.15
	c0.21-1.12,0.78-1.62,1.95-1.59c1.98,0.05,3.96,0,5.95,0.02c1.45,0.01,1.92,0.59,1.65,2.01c-0.4,2.14-0.81,4.27-1.24,6.54
	c1.49,0,2.91-0.04,4.32,0.01c1.5,0.05,3.02,0.07,4.5,0.32c3.35,0.57,5.99,2.08,6.81,5.79c0.31-1.56,0.65-3.1,0.92-4.67
	c0.18-1.04,0.72-1.47,1.78-1.47c4.64,0.03,9.28-0.02,13.91,0.05c1.29,0.02,2.62,0.21,3.87,0.55c4.78,1.28,7.44,4.79,7.4,9.76
	c-0.03,4.52-1.58,8.42-4.84,11.62c-3.01,2.97-6.72,4.06-10.8,4.18c-2.1,0.06-4.2,0.01-6.42,0.01c-0.42,2.13-0.84,4.21-1.24,6.29
	c-0.41,2.17-0.52,2.28-2.67,2.28c-1.74,0-3.49,0-5.23,0c-1.68-0.01-2.13-0.55-1.81-2.21c0.39-2.06,0.8-4.11,1.24-6.34
	c-2.02,0-3.94,0-5.86,0c-0.52,0-1.03,0.01-1.55,0c-1.31-0.03-1.8-0.6-1.56-1.88c0.83-4.39,1.67-8.79,2.54-13.18
	c0.6-3.06,0.43-3.29-2.64-3.3c-1.11,0-2.22,0.03-3.33-0.01c-0.69-0.03-0.94,0.21-1.07,0.9c-0.99,5.25-2.03,10.49-3.05,15.74
	c-0.29,1.48-0.56,1.72-2.04,1.72c-1.98,0.01-3.96,0.01-5.95,0c-1.37-0.01-1.83-0.58-1.59-1.95c0.15-0.86,0.33-1.71,0.49-2.57
	c0.15-0.81,0.3-1.63,0.51-2.76c-0.48,0.62-0.78,1.01-1.08,1.4c-3.11,4.04-7.34,5.75-12.32,5.85C43.12,81.48,41.02,81.44,38.8,81.44z
	 M83.65,88.67c2.24,0,4.29,0.03,6.34-0.04c0.27-0.01,0.68-0.46,0.75-0.76c0.46-2.09,0.91-4.18,1.23-6.29
	c0.17-1.11,0.59-1.44,1.75-1.45c3.2-0.04,6.46,0.07,9.6-0.48c6.72-1.16,11.35-7.88,10.77-15.12c-0.26-3.25-1.86-5.65-4.91-6.84
	c-1.48-0.58-3.13-0.95-4.72-1.01c-4.36-0.15-8.72-0.04-13.08-0.13c-1.18-0.03-1.61,0.34-1.82,1.49c-0.96,5.26-2.02,10.5-3.03,15.75
	C85.57,78.68,84.63,83.58,83.65,88.67z M35.32,56.42c-2.11,10.85-4.17,21.47-6.27,32.24c2.26,0,4.35,0.03,6.44-0.04
	c0.25-0.01,0.63-0.52,0.71-0.85c0.31-1.31,0.52-2.64,0.78-3.96c0.23-1.16,0.13-2.78,0.84-3.36c0.77-0.61,2.33-0.23,3.54-0.3
	c2.49-0.15,5.02-0.06,7.45-0.52c6.09-1.17,10.51-6.85,10.74-13.42c0.17-5.1-2.36-8.68-7.43-9.21
	C46.59,56.42,40.98,56.58,35.32,56.42z M69.31,61.88c2.48,0,4.82-0.12,7.14,0.04c1.95,0.13,2.57,0.97,2.37,2.93
	c-0.16,1.57-0.52,3.12-0.81,4.68c-0.67,3.49-1.35,6.98-2.06,10.63c2.25,0,4.37,0.02,6.5-0.03c0.23-0.01,0.6-0.38,0.65-0.63
	c1-5.09,2.07-10.17,2.9-15.28c0.69-4.22-1.09-6.65-5.36-7.23c-2.85-0.38-5.77-0.29-8.65-0.4c-0.5-0.02-1,0-1.63,0
	c0.55-2.92,1.07-5.65,1.61-8.51c-2.03,0-3.89,0.06-5.74-0.02c-0.97-0.04-1.26,0.32-1.43,1.22c-1.45,7.62-2.95,15.24-4.42,22.86
	c-0.51,2.63-1.01,5.27-1.54,8.04c2.07,0,4-0.04,5.93,0.02c0.83,0.03,1.1-0.3,1.22-1.05c0.2-1.29,0.48-2.57,0.73-3.85
	C67.57,70.81,68.44,66.35,69.31,61.88z"/>
<path d="M83.65,88.67c0.98-5.09,1.92-9.99,2.87-14.88c1.02-5.25,2.07-10.49,3.03-15.75c0.21-1.15,0.64-1.52,1.82-1.49
	c4.36,0.09,8.72-0.02,13.08,0.13c1.59,0.05,3.23,0.43,4.72,1.01c3.05,1.18,4.65,3.59,4.91,6.84c0.59,7.24-4.05,13.96-10.77,15.12
	c-3.13,0.54-6.39,0.44-9.6,0.48c-1.15,0.01-1.58,0.34-1.75,1.45c-0.32,2.11-0.77,4.21-1.23,6.29c-0.07,0.31-0.48,0.75-0.75,0.76
	C87.94,88.69,85.88,88.67,83.65,88.67z M93.25,75.22c2.72-0.17,5.25-0.19,7.75-0.52c2.11-0.28,3.83-1.5,4.6-3.53
	c0.62-1.64,1.06-3.41,1.22-5.15c0.21-2.36-0.9-3.75-3.24-4.04c-2.35-0.3-4.74-0.24-7.11-0.28c-0.23,0-0.64,0.34-0.69,0.58
	C94.93,66.47,94.13,70.66,93.25,75.22z"/>
<path d="M35.32,56.42c5.66,0.16,11.27,0,16.81,0.58c5.07,0.53,7.61,4.12,7.43,9.21c-0.22,6.57-4.65,12.26-10.74,13.42
	c-2.43,0.47-4.96,0.37-7.45,0.52c-1.21,0.07-2.77-0.31-3.54,0.3c-0.72,0.57-0.61,2.19-0.84,3.36c-0.26,1.32-0.47,2.65-0.78,3.96
	c-0.08,0.33-0.46,0.84-0.71,0.85c-2.09,0.07-4.18,0.04-6.44,0.04C31.14,77.89,33.21,67.27,35.32,56.42z M38.69,75.02
	c2.05,0,3.9,0.07,5.76-0.01c4.15-0.19,6.4-2.04,7.39-6.07c0.25-1.03,0.37-2.11,0.38-3.16c0.02-2.2-0.93-3.51-3.11-3.79
	c-2.57-0.33-5.18-0.31-7.79-0.45C40.42,66.16,39.57,70.54,38.69,75.02z"/>
<path d="M69.31,61.88c-0.87,4.47-1.74,8.94-2.61,13.4c-0.25,1.28-0.53,2.56-0.73,3.85c-0.12,0.75-0.39,1.07-1.22,1.05
	c-1.93-0.07-3.87-0.02-5.93-0.02c0.53-2.77,1.03-5.41,1.54-8.04c1.48-7.62,2.98-15.23,4.42-22.86c0.17-0.9,0.46-1.27,1.43-1.22
	c1.85,0.08,3.71,0.02,5.74,0.02c-0.54,2.86-1.06,5.59-1.61,8.51c0.63,0,1.13-0.02,1.63,0c2.89,0.11,5.8,0.02,8.65,0.4
	c4.27,0.58,6.05,3,5.36,7.23c-0.84,5.12-1.9,10.2-2.9,15.28c-0.05,0.25-0.42,0.62-0.65,0.63c-2.12,0.05-4.25,0.03-6.5,0.03
	c0.71-3.65,1.39-7.14,2.06-10.63c0.3-1.56,0.65-3.11,0.81-4.68c0.2-1.96-0.42-2.8-2.37-2.93C74.13,61.76,71.78,61.88,69.31,61.88z"
	/>
<path class="st0" d="M93.25,75.22c0.88-4.56,1.68-8.75,2.53-12.94c0.05-0.24,0.45-0.59,0.69-0.58c2.37,0.04,4.76-0.02,7.11,0.28
	c2.35,0.3,3.45,1.69,3.24,4.04c-0.15,1.74-0.6,3.51-1.22,5.15c-0.77,2.03-2.49,3.25-4.6,3.53C98.5,75.03,95.97,75.05,93.25,75.22z
	 M94.84,73.97c2.28-0.23,4.29-0.32,6.26-0.65c1.66-0.28,2.92-1.36,3.43-2.97c0.48-1.52,0.75-3.13,0.95-4.72
	c0.15-1.22-0.54-2.12-1.78-2.27c-2.22-0.26-4.45-0.37-6.7-0.54C96.27,66.58,95.59,70.07,94.84,73.97z"/>
<path class="st0" d="M38.69,75.02c0.87-4.49,1.72-8.87,2.62-13.48c2.61,0.13,5.22,0.12,7.79,0.45c2.18,0.28,3.13,1.58,3.11,3.79
	c-0.01,1.06-0.13,2.14-0.38,3.16c-0.99,4.03-3.24,5.88-7.39,6.07C42.6,75.09,40.74,75.02,38.69,75.02z M40.31,73.67
	c1.48,0,2.86,0.1,4.23-0.02c3.81-0.35,5.29-1.7,6.13-5.44c0.13-0.58,0.22-1.17,0.27-1.76c0.19-2.09-0.54-3.08-2.62-3.3
	c-1.73-0.18-3.47-0.17-5.21-0.17c-0.28,0-0.77,0.33-0.82,0.58C41.59,66.92,40.96,70.29,40.31,73.67z"/>
<path d="M94.84,73.97c0.76-3.9,1.43-7.38,2.16-11.16c2.25,0.17,4.48,0.28,6.7,0.54c1.24,0.14,1.92,1.05,1.78,2.27
	c-0.19,1.59-0.47,3.2-0.95,4.72c-0.51,1.61-1.77,2.69-3.43,2.97C99.12,73.65,97.11,73.74,94.84,73.97z"/>
<path d="M40.31,73.67c0.65-3.38,1.28-6.75,1.97-10.11c0.05-0.25,0.54-0.58,0.82-0.58c1.74,0,3.48,0,5.21,0.17
	c2.08,0.21,2.81,1.21,2.62,3.3c-0.05,0.59-0.14,1.18-0.27,1.76c-0.84,3.74-2.32,5.09-6.13,5.44C43.17,73.78,41.79,73.67,40.31,73.67
	z"/>
</svg>
