<?xml version="1.0" encoding="utf-8"?>
<!-- Generator: Adobe Illustrator 26.0.0, SVG Export Plug-In . SVG Version: 6.00 Build 0)  -->
<svg version="1.1" id="Calque_1" xmlns="http://www.w3.org/2000/svg" xmlns:xlink="http://www.w3.org/1999/xlink" x="0px" y="0px"
	 viewBox="0 0 141.73 141.73" style="enable-background:new 0 0 141.73 141.73;" xml:space="preserve">
<style type="text/css">
	.st0{fill:#febe13;}
</style>
<circle class="st0" cx="44.5" cy="61.53" r="29.76"/>
<g>
	<path d="M51.93,85.75c-1.48,0-2.82-0.19-4.01-0.56c-1.19-0.37-2.32-1.02-3.4-1.96c-0.28-0.23-0.49-0.5-0.64-0.79
		s-0.22-0.59-0.22-0.89c0-0.49,0.18-0.92,0.52-1.29c0.35-0.37,0.79-0.56,1.32-0.56c0.4,0,0.76,0.13,1.08,0.38
		c0.81,0.66,1.61,1.16,2.4,1.49c0.8,0.34,1.78,0.51,2.94,0.51c0.78,0,1.51-0.12,2.16-0.37c0.66-0.24,1.19-0.57,1.59-0.99
		c0.4-0.41,0.6-0.88,0.6-1.42c0-0.64-0.19-1.18-0.57-1.62c-0.38-0.45-0.96-0.82-1.75-1.13c-0.78-0.31-1.78-0.55-2.99-0.72
		c-1.14-0.17-2.15-0.43-3.02-0.78c-0.87-0.35-1.6-0.79-2.18-1.34c-0.58-0.54-1.02-1.18-1.32-1.91c-0.3-0.73-0.45-1.55-0.45-2.46
		c0-1.38,0.35-2.56,1.07-3.53c0.71-0.98,1.67-1.72,2.88-2.23c1.21-0.51,2.54-0.76,4.01-0.76c1.38,0,2.66,0.21,3.83,0.62
		s2.14,0.94,2.88,1.57c0.61,0.49,0.92,1.05,0.92,1.69c0,0.47-0.18,0.89-0.54,1.27c-0.36,0.38-0.78,0.57-1.27,0.57
		c-0.32,0-0.6-0.1-0.86-0.29c-0.34-0.3-0.8-0.58-1.37-0.84c-0.57-0.26-1.18-0.49-1.81-0.67c-0.64-0.18-1.23-0.27-1.78-0.27
		c-0.91,0-1.68,0.12-2.31,0.35c-0.63,0.23-1.1,0.55-1.42,0.95c-0.32,0.4-0.48,0.87-0.48,1.4c0,0.64,0.19,1.16,0.56,1.57
		c0.37,0.41,0.91,0.74,1.61,0.99c0.7,0.24,1.54,0.46,2.51,0.65c1.27,0.23,2.39,0.51,3.35,0.83c0.96,0.32,1.77,0.73,2.4,1.22
		c0.64,0.5,1.11,1.12,1.43,1.88c0.32,0.75,0.48,1.67,0.48,2.75c0,1.38-0.38,2.57-1.15,3.56c-0.76,1-1.77,1.76-3.01,2.29
		C54.71,85.49,53.37,85.75,51.93,85.75z"/>
	<path d="M65.67,85.44c-0.55,0-1.01-0.19-1.37-0.56s-0.54-0.83-0.54-1.38V63.84c0-0.55,0.18-1.01,0.54-1.38
		c0.36-0.37,0.82-0.56,1.37-0.56c0.55,0,1.01,0.19,1.37,0.56c0.36,0.37,0.54,0.83,0.54,1.38V83.5c0,0.55-0.18,1.01-0.54,1.38
		C66.68,85.25,66.22,85.44,65.67,85.44z M75.78,68.42c0.49,0,0.91,0.2,1.27,0.6c0.36,0.4,0.54,0.8,0.54,1.18
		c0,0.51-0.25,0.99-0.76,1.43l-9.57,8.81l-0.16-4.39l7.28-7.03C74.79,68.62,75.25,68.42,75.78,68.42z M76.26,85.4
		c-0.55,0-1.02-0.21-1.4-0.64l-5.88-6.23l2.89-2.67l5.72,6.23c0.4,0.42,0.6,0.9,0.6,1.43c0,0.55-0.22,1-0.65,1.35
		S76.68,85.4,76.26,85.4z"/>
	<path d="M83.19,66.35c-0.72,0-1.23-0.12-1.53-0.35c-0.3-0.23-0.45-0.65-0.45-1.24v-0.6c0-0.61,0.16-1.03,0.49-1.26
		c0.33-0.22,0.83-0.33,1.51-0.33c0.74,0,1.26,0.12,1.56,0.35c0.3,0.23,0.45,0.65,0.45,1.24v0.6c0,0.62-0.16,1.03-0.48,1.26
		C84.43,66.24,83.91,66.35,83.19,66.35z M85.13,83.5c0,0.55-0.18,1.01-0.54,1.38s-0.82,0.56-1.37,0.56c-0.55,0-1.01-0.19-1.37-0.56
		c-0.36-0.37-0.54-0.83-0.54-1.38V70.36c0-0.55,0.18-1.01,0.54-1.38c0.36-0.37,0.82-0.56,1.37-0.56c0.55,0,1.01,0.19,1.37,0.56
		c0.36,0.37,0.54,0.83,0.54,1.38V83.5z"/>
	<path d="M93.18,83.5c0,0.55-0.19,1.01-0.56,1.38c-0.37,0.37-0.83,0.56-1.38,0.56c-0.53,0-0.98-0.19-1.34-0.56s-0.54-0.83-0.54-1.38
		V63.84c0-0.55,0.18-1.01,0.56-1.38c0.37-0.37,0.83-0.56,1.38-0.56c0.55,0,1,0.19,1.35,0.56c0.35,0.37,0.53,0.83,0.53,1.38V83.5z"/>
	<path d="M101.77,83.5c0,0.55-0.19,1.01-0.56,1.38c-0.37,0.37-0.83,0.56-1.38,0.56c-0.53,0-0.98-0.19-1.34-0.56
		s-0.54-0.83-0.54-1.38V63.84c0-0.55,0.18-1.01,0.56-1.38c0.37-0.37,0.83-0.56,1.38-0.56c0.55,0,1,0.19,1.35,0.56
		c0.35,0.37,0.53,0.83,0.53,1.38V83.5z"/>
	<path d="M105.23,82.8c-0.21-0.3-0.31-0.68-0.29-1.15c0.02-0.47,0.3-0.87,0.83-1.21c0.34-0.21,0.7-0.3,1.08-0.27
		s0.75,0.23,1.11,0.59c0.62,0.62,1.26,1.09,1.94,1.43c0.68,0.34,1.53,0.51,2.54,0.51c0.32-0.02,0.67-0.07,1.05-0.14
		s0.72-0.24,1-0.51c0.29-0.27,0.43-0.67,0.43-1.22c0-0.47-0.16-0.84-0.48-1.11c-0.32-0.28-0.74-0.51-1.26-0.7
		c-0.52-0.19-1.1-0.37-1.73-0.54c-0.66-0.19-1.33-0.4-2.02-0.64c-0.69-0.23-1.32-0.54-1.89-0.91c-0.57-0.37-1.04-0.86-1.4-1.48
		c-0.36-0.62-0.54-1.39-0.54-2.32c0-1.06,0.3-1.96,0.89-2.7c0.59-0.74,1.36-1.31,2.31-1.72s1.93-0.6,2.97-0.6
		c0.66,0,1.35,0.08,2.07,0.24c0.72,0.16,1.41,0.41,2.07,0.76c0.66,0.35,1.21,0.81,1.65,1.38c0.23,0.32,0.37,0.7,0.41,1.15
		c0.04,0.45-0.16,0.85-0.6,1.21c-0.32,0.25-0.69,0.37-1.11,0.33c-0.42-0.03-0.77-0.17-1.05-0.43c-0.36-0.47-0.84-0.84-1.45-1.11
		c-0.6-0.28-1.3-0.41-2.08-0.41c-0.32,0-0.66,0.04-1.03,0.11s-0.69,0.23-0.97,0.48c-0.28,0.24-0.41,0.63-0.41,1.16
		c0,0.49,0.16,0.88,0.48,1.16c0.32,0.29,0.75,0.52,1.29,0.7c0.54,0.18,1.12,0.36,1.73,0.52c0.64,0.17,1.28,0.37,1.94,0.6
		s1.26,0.54,1.81,0.92c0.55,0.38,1,0.88,1.34,1.48c0.34,0.6,0.51,1.37,0.51,2.31c0,1.08-0.32,2-0.95,2.77
		c-0.64,0.76-1.43,1.34-2.39,1.73c-0.95,0.39-1.93,0.59-2.93,0.59c-1.25,0-2.5-0.22-3.75-0.65S106.06,83.9,105.23,82.8z"/>
</g>
</svg>
