<?xml version="1.0" encoding="utf-8"?>
<!-- Generator: Adobe Illustrator 26.0.0, SVG Export Plug-In . SVG Version: 6.00 Build 0)  -->
<svg version="1.1" id="Calque_1" xmlns="http://www.w3.org/2000/svg" xmlns:xlink="http://www.w3.org/1999/xlink" x="0px" y="0px"
	 viewBox="0 0 141.73 141.73" style="enable-background:new 0 0 141.73 141.73;" xml:space="preserve">
<style type="text/css">
	.st0{fill:#febe13;}
</style>
<g>
	<path class="st0" d="M9.46,17.1c0.69-1,1.63-1.28,2.84-1.28c32.21,0.03,64.41,0.02,96.62,0.02c2.3,0,2.88,0.59,2.88,2.93
		c0,15.22,0.01,30.45-0.01,45.67c0,0.79,0.2,1.43,0.63,2.11c5.79,9.2,6.63,18.85,2.51,28.9c-0.34,0.82-0.33,1.27,0.33,1.92
		c5.32,5.25,10.59,10.55,15.87,15.83c1.53,1.53,1.53,2.41,0.02,3.93c-2.54,2.55-5.08,5.09-7.63,7.63c-1.55,1.55-2.43,1.54-4.02-0.04
		c-5.03-5.03-10.07-10.05-15.07-15.1c-0.56-0.57-0.91-0.58-1.57-0.17c-11.47,7.06-25.8,5.9-36.06-2.92c-0.59-0.51-1.16-0.7-1.92-0.7
		c-15.34,0.02-30.69,0.01-46.03,0.01c-5.09,0-7.35-1.57-9.18-6.36c-0.02-0.06-0.12-0.09-0.18-0.13C9.46,71.93,9.46,44.51,9.46,17.1z
		 M62.11,101.75c-0.04-0.18-0.03-0.27-0.07-0.32c-3.34-4.63-5.3-9.79-5.78-15.49c-0.07-0.82-0.53-0.59-0.97-0.57
		c-12.66,0.6-23.01-10.89-21.06-23.4c1.38-8.89,7.96-15.57,16.96-17.22c8.26-1.52,16.95,2.71,21.17,10.36
		c0.45,0.81,0.74,0.77,1.51,0.44c11.98-5.13,23.02-3.55,33.11,4.71c0.19,0.16,0.31,0.49,0.73,0.33c0-0.3,0-0.61,0-0.92
		c0-7.39-0.02-14.78,0.03-22.18c0.01-1-0.25-1.24-1.24-1.24c-30.57,0.03-61.14,0.03-91.71,0c-0.95,0-1.26,0.16-1.26,1.2
		c0.04,19.82,0.03,39.64,0.03,59.46c0,3.3,1.53,4.83,4.83,4.83c14.19,0,28.37,0,42.56,0C61.32,101.75,61.7,101.75,62.11,101.75z
		 M60.61,19.93c-15.3,0-30.6,0.01-45.9-0.02c-0.9,0-1.21,0.17-1.19,1.15c0.07,3.35,0.05,6.71,0.01,10.06c-0.01,0.78,0.1,1.09,1,1.09
		c30.72-0.03,61.44-0.03,92.16,0c0.88,0,1.04-0.28,1.03-1.08c-0.04-3.31-0.08-6.63,0.01-9.94c0.03-1.12-0.35-1.28-1.34-1.27
		C91.13,19.94,75.87,19.93,60.61,19.93z M60.2,83.31c-0.03,14.68,11.84,26.59,26.52,26.61c14.71,0.03,26.57-11.78,26.62-26.49
		c0.05-14.72-11.88-26.71-26.57-26.71C72.11,56.72,60.22,68.61,60.2,83.31z M127.25,115.15c-0.19-0.2-0.32-0.35-0.46-0.48
		c-4.63-4.63-9.26-9.25-13.88-13.9c-0.42-0.42-0.63-0.44-0.97,0.05c-1.28,1.89-2.79,3.59-4.49,5.12c-0.36,0.32-0.46,0.52-0.06,0.92
		c4.56,4.53,9.1,9.08,13.64,13.63c0.34,0.34,0.54,0.44,0.93,0.03c1.61-1.66,3.27-3.28,4.9-4.92
		C127.01,115.47,127.12,115.32,127.25,115.15z M54.55,60.82c-1.72,0-3.44,0.03-5.15-0.02c-0.68-0.02-0.86,0.21-0.91,0.86
		c-0.18,2.12-0.17,4.22-0.01,6.34c0.06,0.8,0.27,1.07,1.1,1.05c2.95-0.05,5.91-0.02,8.87-0.02c1.29,0,2.08-0.66,2.11-1.96
		c0.05-1.79-0.04-3.59-0.04-5.39c0-0.66-0.26-0.9-0.94-0.88C57.91,60.85,56.23,60.82,54.55,60.82z M54.51,56.72
		c1.52,0,3.03-0.02,4.55,0.01c0.55,0.01,0.71-0.16,0.55-0.69c-0.34-1.18-0.6-2.39-0.99-3.56c-1.35-4.11-1.9-4.43-6.21-3.75
		c-0.04,0.01-0.08,0.01-0.12,0.01c-0.44-0.04-0.63,0.21-0.78,0.58c-0.91,2.17-1.63,4.4-2.19,6.68c-0.15,0.61,0.05,0.76,0.64,0.74
		C51.48,56.7,53,56.72,54.51,56.72z M53.58,73.13c-1.19,0-2.39,0.02-3.58-0.01c-0.55-0.01-0.79,0.06-0.63,0.73
		c0.56,2.28,1.28,4.5,2.19,6.67c0.12,0.29,0.23,0.58,0.64,0.61c1.11,0.09,2.21,0.27,3.33,0.14c0.43-0.05,0.69-0.13,0.74-0.68
		c0.2-2.26,0.61-4.49,1.37-6.64c0.21-0.59,0.13-0.87-0.6-0.83C55.89,73.17,54.73,73.13,53.58,73.13z M41.55,60.89
		c0-0.02,0-0.05,0-0.07c-0.64,0-1.28,0.05-1.91-0.01c-0.81-0.08-1.09,0.23-1.23,1.02c-0.38,2.15-0.37,4.27,0.04,6.41
		c0.11,0.57,0.31,0.82,0.92,0.81c1.43-0.04,2.87-0.04,4.3,0c0.65,0.02,0.84-0.2,0.75-0.83c-0.22-1.54-0.14-3.1-0.17-4.65
		c-0.02-0.89,0.63-2.09-0.04-2.59C43.63,60.54,42.46,60.89,41.55,60.89z M46.69,79.3c-0.58-2-1.19-3.79-1.52-5.66
		c-0.05-0.32-0.2-0.51-0.54-0.51c-1.36,0-2.72,0-4.29,0C41.99,75.84,43.98,77.79,46.69,79.3z M40.37,56.73c1.51,0,2.78,0,4.05,0
		c0.33,0,0.66,0.01,0.73-0.42c0.31-1.9,0.93-3.73,1.5-5.74C43.98,52.09,41.97,54.02,40.37,56.73z M62.44,50.68
		c0.51,2,0.97,3.76,1.41,5.52c0.07,0.29,0.12,0.53,0.5,0.52c1.36-0.01,2.73,0,4.28,0C67.02,54.08,65.08,52.16,62.44,50.68z
		 M65.98,60.88c-1.52-0.07-1.52-0.07-1.22,1.17C65.12,61.7,65.46,61.38,65.98,60.88z"/>
	<path class="st0" d="M36.06,24.02c2.05,0,2.05,0,2.05,2.04c0,2.05,0,2.05-2.05,2.05c-2.06,0-2.06,0-2.06-2.05
		C34,24.02,34,24.02,36.06,24.02z"/>
	<path class="st0" d="M21.73,26.08c0,2.03,0,2.03-2.06,2.03c-2.03,0-2.03,0-2.03-2.07c0-2.03,0-2.03,2.07-2.03
		C21.73,24.02,21.73,24.02,21.73,26.08z"/>
	<path class="st0" d="M27.93,24.02c1.98,0,1.98,0,1.98,1.98c0,2.11,0,2.11-2.1,2.11c-2,0-2,0-2-1.99
		C25.81,24.02,25.81,24.02,27.93,24.02z"/>
	<path class="st0" d="M86.82,60.82c12.44,0.03,22.51,10.18,22.45,22.62c-0.06,12.44-10.09,22.41-22.52,22.4
		C74.29,105.82,64.23,95.7,64.3,83.25C64.37,70.82,74.44,60.79,86.82,60.82z M86.84,64.93C76.73,64.88,68.48,73.05,68.4,83.2
		c-0.08,10.2,8.11,18.51,18.27,18.55c10.21,0.04,18.46-8.14,18.51-18.33C105.22,73.23,97.05,64.98,86.84,64.93z"/>
</g>
</svg>
