<?xml version="1.0" encoding="utf-8"?>
<!-- Generator: Adobe Illustrator 26.0.0, SVG Export Plug-In . SVG Version: 6.00 Build 0)  -->
<svg version="1.1" id="Calque_1" xmlns="http://www.w3.org/2000/svg" xmlns:xlink="http://www.w3.org/1999/xlink" x="0px" y="0px"
	 viewBox="0 0 141.73 141.73" style="enable-background:new 0 0 141.73 141.73;" xml:space="preserve">
<style type="text/css">
	.st0{fill:#febe13;}
</style>
<circle class="st0" cx="44.5" cy="61.53" r="29.76"/>
<g>
	<path d="M65.67,67.45c0.49,0,0.91,0.19,1.27,0.56c0.36,0.37,0.54,0.84,0.54,1.42c0,0.15-0.01,0.28-0.03,0.4
		c-0.02,0.12-0.05,0.23-0.1,0.33l-4.87,13.1c-0.15,0.42-0.41,0.75-0.79,0.97c-0.38,0.22-0.78,0.3-1.21,0.24
		c-0.72-0.04-1.26-0.45-1.62-1.21l-3.15-9.06l0.83,0.03l-2.96,9.03c-0.36,0.76-0.9,1.17-1.62,1.21c-0.4,0.06-0.8-0.02-1.19-0.24
		c-0.39-0.22-0.66-0.55-0.81-0.97l-4.87-13.1c-0.08-0.23-0.13-0.48-0.13-0.73c0-0.51,0.17-0.96,0.51-1.37c0.34-0.4,0.81-0.6,1.4-0.6
		c0.4,0,0.76,0.1,1.08,0.29c0.32,0.19,0.54,0.5,0.67,0.92l3.85,10.43l-0.8-0.06l2.89-7.86c0.34-0.78,0.92-1.18,1.75-1.18
		c0.47,0,0.82,0.1,1.07,0.3c0.24,0.2,0.44,0.49,0.59,0.87l2.89,7.86l-0.95,0.13l3.91-10.49C64.08,67.85,64.7,67.45,65.67,67.45z"/>
	<path d="M87.01,75.97c0,1.74-0.39,3.27-1.16,4.6c-0.77,1.33-1.81,2.36-3.12,3.1c-1.3,0.74-2.76,1.11-4.37,1.11
		s-3.07-0.37-4.37-1.11c-1.3-0.74-2.34-1.78-3.12-3.1c-0.77-1.32-1.16-2.86-1.16-4.6c0-1.74,0.39-3.27,1.16-4.59
		c0.77-1.32,1.81-2.36,3.12-3.12c1.3-0.75,2.76-1.13,4.37-1.13s3.07,0.38,4.37,1.13c1.3,0.75,2.34,1.79,3.12,3.12
		C86.63,72.7,87.01,74.23,87.01,75.97z M83.2,75.97c0-1.08-0.22-2.02-0.65-2.81c-0.44-0.79-1.02-1.41-1.75-1.86
		c-0.73-0.45-1.54-0.67-2.43-0.67s-1.7,0.22-2.43,0.67c-0.73,0.45-1.32,1.06-1.75,1.86c-0.44,0.79-0.65,1.73-0.65,2.81
		c0,1.06,0.22,1.99,0.65,2.78c0.43,0.79,1.02,1.42,1.75,1.86c0.73,0.45,1.54,0.67,2.43,0.67s1.7-0.22,2.43-0.67
		c0.73-0.45,1.31-1.07,1.75-1.86C82.98,77.96,83.2,77.03,83.2,75.97z"/>
	<path d="M92.26,84.46c-0.55,0-1.01-0.19-1.37-0.56c-0.36-0.37-0.54-0.83-0.54-1.38V69.39c0-0.55,0.18-1.01,0.54-1.38
		c0.36-0.37,0.82-0.56,1.37-0.56c0.55,0,1.01,0.19,1.37,0.56c0.36,0.37,0.54,0.83,0.54,1.38v2.99l-0.22-2.13
		c0.23-0.51,0.54-0.96,0.91-1.35c0.37-0.39,0.79-0.72,1.26-0.99c0.47-0.26,0.96-0.46,1.49-0.59c0.53-0.13,1.06-0.19,1.59-0.19
		c0.64,0,1.17,0.18,1.61,0.54s0.65,0.78,0.65,1.27c0,0.7-0.18,1.2-0.54,1.51c-0.36,0.31-0.75,0.46-1.18,0.46
		c-0.4,0-0.77-0.07-1.1-0.22c-0.33-0.15-0.71-0.22-1.13-0.22c-0.38,0-0.77,0.09-1.16,0.27c-0.39,0.18-0.75,0.46-1.08,0.84
		c-0.33,0.38-0.59,0.85-0.8,1.42s-0.3,1.22-0.3,1.99v7.54c0,0.55-0.18,1.01-0.54,1.38S92.81,84.46,92.26,84.46z"/>
	<path d="M106.38,84.46c-0.55,0-1.01-0.19-1.37-0.56s-0.54-0.83-0.54-1.38V62.87c0-0.55,0.18-1.01,0.54-1.38
		c0.36-0.37,0.82-0.56,1.37-0.56c0.55,0,1.01,0.19,1.37,0.56c0.36,0.37,0.54,0.83,0.54,1.38v19.65c0,0.55-0.18,1.01-0.54,1.38
		S106.93,84.46,106.38,84.46z M116.5,67.45c0.49,0,0.91,0.2,1.27,0.6c0.36,0.4,0.54,0.8,0.54,1.18c0,0.51-0.25,0.99-0.76,1.43
		l-9.57,8.81l-0.16-4.39l7.28-7.03C115.5,67.65,115.96,67.45,116.5,67.45z M116.97,84.43c-0.55,0-1.02-0.21-1.4-0.64l-5.88-6.23
		l2.89-2.67l5.72,6.23c0.4,0.42,0.6,0.9,0.6,1.43c0,0.55-0.22,1-0.65,1.35S117.4,84.43,116.97,84.43z"/>
</g>
</svg>
